STARTFONT 2.1
FONT -FontForge-Righteous-Book-R-Normal--32-320-72-72-P-173-ISO10646-1
SIZE 32 72 72
FONTBOUNDINGBOX 40 39 -5 -8
COMMENT "Generated by fontforge, http://fontforge.sourceforge.net"
COMMENT "Copyright (c) 2011 by Brian J. Bonislawsky DBA Astigmatic (AOETI) (astigma@astigmatic.com), with ReservedFont Name "Righteous""
STARTPROPERTIES 39
FOUNDRY "FontForge"
FAMILY_NAME "Righteous"
WEIGHT_NAME "Book"
SLANT "R"
SETWIDTH_NAME "Normal"
ADD_STYLE_NAME ""
PIXEL_SIZE 32
POINT_SIZE 320
RESOLUTION_X 72
RESOLUTION_Y 72
SPACING "P"
AVERAGE_WIDTH 173
CHARSET_REGISTRY "ISO10646"
CHARSET_ENCODING "1"
FONTNAME_REGISTRY ""
CHARSET_COLLECTIONS "ISO8859-2 ISO8859-9 ISO8859-4 ISO10646-1"
FONT_NAME "Righteous-Regular"
FACE_NAME "Righteous"
COPYRIGHT "Copyright (c) 2011 by Brian J. Bonislawsky DBA Astigmatic (AOETI) (astigma@astigmatic.com), with ReservedFont Name "Righteous""
FONT_VERSION "1.000"
FONT_ASCENT 26
FONT_DESCENT 6
UNDERLINE_POSITION -4
UNDERLINE_THICKNESS 1
X_HEIGHT 16
CAP_HEIGHT 21
RAW_ASCENT 799
RAW_DESCENT 200
NORM_SPACE 9
RELATIVE_WEIGHT 40
RELATIVE_SETWIDTH 50
SUPERSCRIPT_X 0
SUPERSCRIPT_Y 15
SUPERSCRIPT_SIZE 20
SUBSCRIPT_X 0
SUBSCRIPT_Y 4
SUBSCRIPT_SIZE 20
AVG_LOWERCASE_WIDTH 170
AVG_UPPERCASE_WIDTH 205
ENDPROPERTIES
CHARS 372
STARTCHAR space
ENCODING 32
SWIDTH 279 0
DWIDTH 9 0
BBX 1 1 0 0
BITMAP
00
ENDCHAR
STARTCHAR exclam
ENCODING 33
SWIDTH 274 0
DWIDTH 9 0
BBX 5 23 2 -1
BITMAP
F8
F8
F8
F8
F8
F8
F8
F8
F8
F8
F8
F0
F0
F0
70
70
00
00
70
F8
F8
F8
70
ENDCHAR
STARTCHAR quotedbl
ENCODING 34
SWIDTH 409 0
DWIDTH 13 0
BBX 9 7 2 15
BITMAP
F780
F780
F780
F780
F780
F380
E380
ENDCHAR
STARTCHAR numbersign
ENCODING 35
SWIDTH 561 0
DWIDTH 18 0
BBX 16 14 1 4
BITMAP
079C
07BC
073C
3FFF
3FFE
3FFE
1E78
1E78
7FFC
7FFC
FFFC
3CE0
39E0
39E0
ENDCHAR
STARTCHAR dollar
ENCODING 36
SWIDTH 458 0
DWIDTH 15 0
BBX 12 22 1 0
BITMAP
0700
0700
0700
0700
3FF0
7FF0
7FF0
F000
F000
7FC0
7FF0
3FF0
0070
0070
FFF0
FFF0
FFE0
0700
0700
0700
0700
0700
ENDCHAR
STARTCHAR percent
ENCODING 37
SWIDTH 685 0
DWIDTH 22 0
BBX 20 23 1 0
BITMAP
1C0000
7F0380
7F8780
F38700
E38F00
E38E00
E39E00
E39C00
77BC00
7F3800
3F7000
08F000
00E780
01EFE0
01DFE0
03DCF0
039C70
079C70
071C70
0E1CF0
0E1FE0
1C0FE0
3C07C0
ENDCHAR
STARTCHAR ampersand
ENCODING 38
SWIDTH 485 0
DWIDTH 16 0
BBX 12 22 2 0
BITMAP
0700
0700
07F0
3FF0
7FF0
FFF0
F000
E000
F000
FF80
7F80
7F80
FF80
F000
E000
F000
FFF0
7FF0
3FF0
0700
0700
0700
ENDCHAR
STARTCHAR quotesingle
ENCODING 39
SWIDTH 238 0
DWIDTH 8 0
BBX 4 7 2 15
BITMAP
F0
F0
F0
F0
F0
F0
E0
ENDCHAR
STARTCHAR parenleft
ENCODING 40
SWIDTH 351 0
DWIDTH 11 0
BBX 10 29 1 -3
BITMAP
07C0
0F80
1F00
1F00
3E00
3E00
7C00
7C00
7C00
7800
F800
F800
F800
F800
F800
F800
F800
F800
F800
7800
7C00
7C00
3C00
3E00
3E00
1F00
1F00
0F80
0F80
ENDCHAR
STARTCHAR parenright
ENCODING 41
SWIDTH 351 0
DWIDTH 11 0
BBX 9 29 1 -3
BITMAP
F000
F800
7C00
3C00
3E00
1E00
1F00
1F00
0F00
0F80
0F80
0F80
0F80
0780
0780
0F80
0F80
0F80
0F80
0F80
0F00
1F00
1F00
3E00
3E00
3C00
7C00
F800
F800
ENDCHAR
STARTCHAR asterisk
ENCODING 42
SWIDTH 589 0
DWIDTH 19 0
BBX 17 17 1 10
BITMAP
03E000
03E000
03E000
03E000
33E600
7FFF00
7FFF00
FFFF80
3FFE00
0FF800
07F000
0FF800
1FFC00
3F7E00
3E3E00
1C1C00
0C1800
ENDCHAR
STARTCHAR plus
ENCODING 43
SWIDTH 485 0
DWIDTH 16 0
BBX 13 13 1 5
BITMAP
0780
0780
0780
0780
0780
FFF8
FFF8
FFF8
FFF8
0780
0780
0780
0780
ENDCHAR
STARTCHAR comma
ENCODING 44
SWIDTH 264 0
DWIDTH 8 0
BBX 5 8 2 -4
BITMAP
F0
F8
F8
F8
78
30
70
20
ENDCHAR
STARTCHAR hyphen
ENCODING 45
SWIDTH 528 0
DWIDTH 17 0
BBX 13 4 2 9
BITMAP
FFF8
FFF8
FFF8
FFF8
ENDCHAR
STARTCHAR period
ENCODING 46
SWIDTH 263 0
DWIDTH 8 0
BBX 5 5 2 -1
BITMAP
F0
F8
F8
F8
70
ENDCHAR
STARTCHAR slash
ENCODING 47
SWIDTH 490 0
DWIDTH 16 0
BBX 13 22 1 0
BITMAP
0078
00F8
00F8
00F0
01F0
01E0
03E0
03E0
07C0
07C0
0780
0F80
0F00
1F00
1F00
1E00
3E00
3C00
7C00
7C00
F800
F800
ENDCHAR
STARTCHAR zero
ENCODING 48
SWIDTH 642 0
DWIDTH 21 0
BBX 18 23 1 0
BITMAP
01E000
07FC00
1FFE00
3FFF00
3FBF80
7C0F80
7C07C0
7807C0
7803C0
F803C0
F803C0
F803C0
F803C0
F803C0
F803C0
7803C0
7807C0
7C0780
3E0F80
3FFF80
1FFF00
0FFE00
07F800
ENDCHAR
STARTCHAR one
ENCODING 49
SWIDTH 317 0
DWIDTH 10 0
BBX 7 22 1 0
BITMAP
FE
FE
FE
FE
3E
3E
3E
3E
3E
3E
3E
3E
3E
3E
3E
3E
3E
3E
3E
3E
3E
3E
ENDCHAR
STARTCHAR two
ENCODING 50
SWIDTH 570 0
DWIDTH 18 0
BBX 16 22 1 0
BITMAP
7FF8
7FFC
7FFE
7FFE
001F
001F
000F
001F
003F
0FFE
3FFE
3FFC
7FF0
7C00
F800
F800
F800
F800
FFFE
FFFE
FFFE
FFFE
ENDCHAR
STARTCHAR three
ENCODING 51
SWIDTH 586 0
DWIDTH 19 0
BBX 15 22 2 0
BITMAP
FFF0
FFF8
FFFC
FFFE
003E
001E
001E
003E
007E
3FFC
3FFC
3FFC
3FFE
003E
001E
001E
003E
007E
FFFC
FFFC
FFF8
FFE0
ENDCHAR
STARTCHAR four
ENCODING 52
SWIDTH 630 0
DWIDTH 20 0
BBX 18 22 1 0
BITMAP
3E0000
3E0000
3E1F00
3C1F00
3C1F00
3C1F00
7C1F00
7C1F00
7C1F00
781F00
781F00
781F00
781F00
FFFFC0
FFFFC0
FFFFC0
FFFFC0
FFFFC0
001F00
001F00
001F00
001F00
ENDCHAR
STARTCHAR five
ENCODING 53
SWIDTH 585 0
DWIDTH 19 0
BBX 16 22 2 0
BITMAP
7FFE
7FFE
7FFE
FFFE
F800
F800
F800
F800
FFE0
FFF8
FFFC
FFFE
007E
001E
001F
001F
001E
007E
FFFE
FFFC
FFF8
FFE0
ENDCHAR
STARTCHAR six
ENCODING 54
SWIDTH 615 0
DWIDTH 20 0
BBX 18 23 1 -1
BITMAP
07E000
0FC000
0F8000
1F0000
3E0000
3EE000
7FFC00
7FFE00
7FFF00
7FFF80
FC0F80
FC0780
F807C0
F807C0
F807C0
F80780
7C0F80
7E1F80
3FFF00
3FFF00
1FFE00
07F800
00C000
ENDCHAR
STARTCHAR seven
ENCODING 55
SWIDTH 516 0
DWIDTH 17 0
BBX 15 22 1 0
BITMAP
FFFE
FFFE
FFFC
FFFC
007C
0078
00F8
00F8
00F0
01F0
01F0
01E0
03E0
03E0
03C0
07C0
07C0
0780
0F80
0F80
0F00
1F00
ENDCHAR
STARTCHAR eight
ENCODING 56
SWIDTH 618 0
DWIDTH 20 0
BBX 18 24 1 -1
BITMAP
03F000
0FFC00
1FFE00
3FFF00
3E1F00
7C0F00
7C0F00
3C0F00
3E1F00
3FFE00
1FFE00
1FFE00
3FFF00
7C1F80
F80F80
F807C0
F807C0
F807C0
F80F80
7E1F80
3FFF00
1FFE00
0FFC00
00C000
ENDCHAR
STARTCHAR nine
ENCODING 57
SWIDTH 616 0
DWIDTH 20 0
BBX 17 23 1 0
BITMAP
03F000
0FFC00
1FFE00
3FFF00
7F7F00
7C1F80
F80F80
F80780
F80780
F80780
F80F80
F80F80
7C1F80
7FFF80
3FFF80
1FFF00
0FFF00
001F00
003E00
007C00
00FC00
01F800
03F000
ENDCHAR
STARTCHAR colon
ENCODING 58
SWIDTH 276 0
DWIDTH 9 0
BBX 5 14 2 -1
BITMAP
70
F8
F8
F8
70
00
00
00
00
70
F8
F8
F8
70
ENDCHAR
STARTCHAR semicolon
ENCODING 59
SWIDTH 276 0
DWIDTH 9 0
BBX 5 17 2 -4
BITMAP
70
F8
F8
F8
70
00
00
00
00
70
F8
F8
F8
78
38
70
20
ENDCHAR
STARTCHAR less
ENCODING 60
SWIDTH 478 0
DWIDTH 15 0
BBX 13 19 1 3
BITMAP
0040
00E0
01F0
03F8
07F0
0FE0
1FC0
3F80
7F00
FE00
FE00
3F00
1F80
0FC0
07F0
03F8
01F0
00E0
0040
ENDCHAR
STARTCHAR equal
ENCODING 61
SWIDTH 539 0
DWIDTH 17 0
BBX 13 11 2 6
BITMAP
FFF8
FFF8
FFF8
FFF8
FFF8
0000
0000
FFF8
FFF8
FFF8
FFF8
ENDCHAR
STARTCHAR greater
ENCODING 62
SWIDTH 478 0
DWIDTH 15 0
BBX 12 18 2 3
BITMAP
3000
F800
FC00
7E00
3F00
1F80
0FC0
07E0
03F0
07F0
0FE0
1FC0
3F80
7F00
FE00
F800
7000
2000
ENDCHAR
STARTCHAR question
ENCODING 63
SWIDTH 603 0
DWIDTH 19 0
BBX 17 23 1 -1
BITMAP
FFFC00
FFFE00
FFFF00
FFFF80
000F80
000780
000780
000F80
001F80
01FF00
03FF00
07FE00
07F800
0F8000
0F8000
0F8000
000000
000000
0F0000
0F8000
0F8000
0F8000
070000
ENDCHAR
STARTCHAR at
ENCODING 64
SWIDTH 629 0
DWIDTH 20 0
BBX 18 18 1 -1
BITMAP
07F800
0FFE00
1FFF00
3C0F80
783F80
73FBC0
F7F9C0
E7F9C0
E739C0
E739C0
E7FFC0
73FFC0
78FF80
3C0000
3FA000
1FE000
07E000
00C000
ENDCHAR
STARTCHAR A
ENCODING 65
SWIDTH 673 0
DWIDTH 22 0
BBX 18 22 2 0
BITMAP
07F800
1FFC00
3FFE00
7FFF00
7E1F80
FC0F80
F807C0
F007C0
F007C0
F007C0
F007C0
F007C0
F007C0
FFFFC0
FFFFC0
FFFFC0
FFFFC0
FFFFC0
F007C0
F007C0
F007C0
F007C0
ENDCHAR
STARTCHAR B
ENCODING 66
SWIDTH 666 0
DWIDTH 21 0
BBX 18 22 2 0
BITMAP
FFFE00
FFFF00
FFFF80
FFFF80
F807C0
F807C0
F807C0
F807C0
F80FC0
FFFF80
FFFF00
FFFF80
FFFF80
F807C0
F807C0
F807C0
F807C0
F81FC0
FFFF80
FFFF00
FFFE00
FFFC00
ENDCHAR
STARTCHAR C
ENCODING 67
SWIDTH 640 0
DWIDTH 20 0
BBX 19 23 1 0
BITMAP
003C00
03FF80
07FFC0
1FFFE0
1FFFC0
3F01C0
7E0080
7C0000
F80000
F80000
F00000
F00000
F00000
F00000
F80000
F80000
7C0000
7E0080
3F83C0
1FFFC0
0FFFE0
07FFC0
01FF00
ENDCHAR
STARTCHAR D
ENCODING 68
SWIDTH 653 0
DWIDTH 21 0
BBX 18 22 2 0
BITMAP
FFE000
FFF800
FFFC00
FFFE00
F87F00
F81F80
F80F80
F807C0
F807C0
F807C0
F803C0
F807C0
F807C0
F807C0
F80F80
F80F80
F83F00
F9FF00
FFFE00
FFFC00
FFF000
FFC000
ENDCHAR
STARTCHAR E
ENCODING 69
SWIDTH 578 0
DWIDTH 19 0
BBX 15 22 2 0
BITMAP
FFFE
FFFE
FFFE
FFFE
F800
F800
F800
F800
F800
FFF0
FFF0
FFF0
FFF0
F800
F800
F800
F800
F800
FFFE
FFFE
FFFE
FFFE
ENDCHAR
STARTCHAR F
ENCODING 70
SWIDTH 562 0
DWIDTH 18 0
BBX 16 22 2 0
BITMAP
FFFF
FFFF
FFFF
FFFF
F800
F800
F800
F800
F800
FFE0
FFE0
FFE0
FFE0
F800
F800
F800
F800
F800
F800
F800
F800
F800
ENDCHAR
STARTCHAR G
ENCODING 71
SWIDTH 665 0
DWIDTH 21 0
BBX 19 23 1 0
BITMAP
003800
03FF00
07FFC0
1FFFE0
1FFFC0
3F0380
7E0080
7C0000
F80000
F80000
F00000
F00000
F001E0
F001E0
F801E0
F801E0
7C01E0
7E01E0
3F83E0
1FFFE0
0FFFE0
07FFC0
01FF00
ENDCHAR
STARTCHAR H
ENCODING 72
SWIDTH 689 0
DWIDTH 22 0
BBX 18 22 2 0
BITMAP
F803C0
F803C0
F803C0
F803C0
F803C0
F803C0
F803C0
F803C0
F803C0
FFFFC0
FFFFC0
FFFFC0
FFFFC0
F803C0
F803C0
F803C0
F803C0
F803C0
F803C0
F803C0
F803C0
F803C0
ENDCHAR
STARTCHAR I
ENCODING 73
SWIDTH 270 0
DWIDTH 9 0
BBX 5 22 2 0
BITMAP
F8
F8
F8
F8
F8
F8
F8
F8
F8
F8
F8
F8
F8
F8
F8
F8
F8
F8
F8
F8
F8
F8
ENDCHAR
STARTCHAR J
ENCODING 74
SWIDTH 416 0
DWIDTH 13 0
BBX 12 22 0 0
BITMAP
01F0
01F0
01F0
01F0
01F0
01F0
01F0
01F0
01F0
01F0
01F0
01F0
01F0
01F0
01E0
03E0
07E0
DFC0
FFC0
FF80
FF00
F800
ENDCHAR
STARTCHAR K
ENCODING 75
SWIDTH 625 0
DWIDTH 20 0
BBX 18 22 2 0
BITMAP
F80F80
F81F80
F81F00
F83E00
F87C00
F8FC00
F8F800
F9F000
FBE000
FBE000
FFF000
FFF000
FFF800
FFF800
FE7C00
FC7C00
F83E00
F83F00
F81F00
F80F80
F80F80
F807C0
ENDCHAR
STARTCHAR L
ENCODING 76
SWIDTH 562 0
DWIDTH 18 0
BBX 16 22 2 0
BITMAP
F800
F800
F800
F800
F800
F800
F800
F800
F800
F800
F800
F800
F800
F800
F800
F800
F800
F800
FFFF
FFFF
FFFF
FFFF
ENDCHAR
STARTCHAR M
ENCODING 77
SWIDTH 819 0
DWIDTH 26 0
BBX 22 23 2 0
BITMAP
070380
1FCFE0
3FFFF8
7FFFF8
FFFFFC
F8FC7C
F0783C
F0783C
F0783C
F0783C
F0783C
F0783C
F0783C
F0783C
F0783C
F0783C
F0783C
F0783C
F0783C
F0783C
F0783C
F0783C
F0783C
ENDCHAR
STARTCHAR N
ENCODING 78
SWIDTH 689 0
DWIDTH 22 0
BBX 18 22 2 0
BITMAP
F803C0
FC03C0
FE03C0
FE03C0
FF03C0
FF03C0
FF83C0
FFC3C0
FFC3C0
FBE3C0
FBE3C0
F9F3C0
F8F3C0
F8FBC0
F87FC0
F87FC0
F83FC0
F81FC0
F81FC0
F80FC0
F80FC0
F807C0
ENDCHAR
STARTCHAR O
ENCODING 79
SWIDTH 777 0
DWIDTH 25 0
BBX 23 23 1 0
BITMAP
003800
03FF80
07FFC0
1FFFE0
1FFFF0
3F01F8
7E00FC
7C007C
F8003E
F8003E
F0003E
F0001E
F0001E
F0003E
F8003E
F8003C
7C007C
7E00FC
3F83F8
1FFFF0
0FFFE0
07FFC0
01FF00
ENDCHAR
STARTCHAR P
ENCODING 80
SWIDTH 642 0
DWIDTH 21 0
BBX 18 22 2 0
BITMAP
FFF800
FFFE00
FFFF00
FFFF00
F81F80
F80F80
F807C0
F807C0
F803C0
F807C0
F807C0
F80FC0
F81F80
FFFF80
FFFF00
FFFE00
FFF800
FF8000
F80000
F80000
F80000
F80000
ENDCHAR
STARTCHAR Q
ENCODING 81
SWIDTH 777 0
DWIDTH 25 0
BBX 23 27 1 -4
BITMAP
003800
03FF80
07FFC0
1FFFE0
1FFFF0
3F01F8
7E00FC
7C007C
F8003E
F8003E
F0003E
F0001E
F0001E
F0003E
F8003E
F8003C
7C007C
7E00FC
3F83F8
1FFFF0
0FFFE0
07FFC0
01FF80
000F80
0007C0
0003E0
0003E0
ENDCHAR
STARTCHAR R
ENCODING 82
SWIDTH 651 0
DWIDTH 21 0
BBX 18 22 2 0
BITMAP
FFF800
FFFE00
FFFF00
FFFF00
F81F80
F80F80
F807C0
F807C0
F803C0
F807C0
F807C0
F80F80
F81F80
FFFF80
FFFF00
FFFE00
FFFC00
FE3C00
F83E00
F83E00
F81F00
F81F00
ENDCHAR
STARTCHAR S
ENCODING 83
SWIDTH 610 0
DWIDTH 20 0
BBX 18 22 1 0
BITMAP
1FFF80
3FFF80
7FFF80
FFFF80
F80000
F00000
F00000
F80000
FC0000
7FFC00
7FFF00
3FFF80
0FFF80
000F80
0007C0
0007C0
0007C0
001F80
7FFF80
7FFF00
7FFE00
7FF800
ENDCHAR
STARTCHAR T
ENCODING 84
SWIDTH 578 0
DWIDTH 19 0
BBX 18 22 0 0
BITMAP
FFFFC0
FFFFC0
FFFFC0
FFFFC0
01E000
01E000
01E000
01E000
01E000
01E000
01E000
01E000
01E000
01E000
01E000
01E000
01E000
01E000
01E000
01E000
01E000
01E000
ENDCHAR
STARTCHAR U
ENCODING 85
SWIDTH 673 0
DWIDTH 22 0
BBX 18 22 2 0
BITMAP
F007C0
F007C0
F007C0
F007C0
F007C0
F007C0
F007C0
F007C0
F007C0
F007C0
F007C0
F007C0
F007C0
F007C0
F807C0
F80F80
7C0F80
7FFF80
3FFF00
1FFE00
0FFC00
03F000
ENDCHAR
STARTCHAR V
ENCODING 86
SWIDTH 602 0
DWIDTH 19 0
BBX 19 22 0 0
BITMAP
F803E0
7C07E0
7C07C0
7C07C0
3E07C0
3E0F80
3E0F80
1E0F80
1F1F00
1F1F00
0F1F00
0FBE00
0FBE00
07BE00
07FC00
07FC00
03FC00
03F800
03F800
01F800
01F000
01F000
ENDCHAR
STARTCHAR W
ENCODING 87
SWIDTH 819 0
DWIDTH 26 0
BBX 22 22 2 0
BITMAP
F0783C
F0783C
F0783C
F0783C
F0783C
F0783C
F0783C
F0783C
F0783C
F0783C
F0783C
F0783C
F0783C
F0783C
F0783C
F0783C
F87C3C
FCFC7C
7FFFFC
7FFFF8
3FFFF0
1FCFE0
ENDCHAR
STARTCHAR X
ENCODING 88
SWIDTH 608 0
DWIDTH 19 0
BBX 19 22 0 0
BITMAP
7C07E0
7E07C0
3E0FC0
3F0F80
1F1F00
0F9F00
0FFE00
07FE00
07FC00
03F800
01F800
03F800
03FC00
07FC00
07FE00
0FBF00
1F9F00
1F1F80
3F0F80
3E07C0
7C07E0
FC03E0
ENDCHAR
STARTCHAR Y
ENCODING 89
SWIDTH 620 0
DWIDTH 20 0
BBX 18 22 1 0
BITMAP
F007C0
F007C0
F007C0
F007C0
F007C0
F007C0
F007C0
F807C0
F807C0
7C0F80
7E3F80
3FFF00
3FFE00
0FFC00
07F800
01E000
01E000
01E000
01E000
01E000
01E000
01E000
ENDCHAR
STARTCHAR Z
ENCODING 90
SWIDTH 586 0
DWIDTH 19 0
BBX 17 22 1 0
BITMAP
FFFF80
FFFF00
FFFF00
FFFE00
007C00
007C00
00F800
01F800
01F000
03F000
03E000
07E000
07C000
0FC000
0F8000
1F8000
1F0000
3F0000
3FFF80
7FFF80
7FFF80
FFFF80
ENDCHAR
STARTCHAR bracketleft
ENCODING 91
SWIDTH 380 0
DWIDTH 12 0
BBX 9 29 2 -3
BITMAP
FF80
FF80
FF80
FF80
FF80
F800
F800
F800
F800
F800
F800
F800
F800
F800
F800
F800
F800
F800
F800
F800
F800
F800
F800
F800
F800
FF80
FF80
FF80
FF80
ENDCHAR
STARTCHAR backslash
ENCODING 92
SWIDTH 490 0
DWIDTH 16 0
BBX 14 22 1 0
BITMAP
F800
7800
7C00
3C00
3E00
3E00
1E00
1F00
0F00
0F80
0F80
0780
07C0
03C0
03E0
03E0
01F0
01F0
00F0
00F8
0078
007C
ENDCHAR
STARTCHAR bracketright
ENCODING 93
SWIDTH 380 0
DWIDTH 12 0
BBX 9 29 1 -3
BITMAP
FF80
FF80
FF80
FF80
FF80
0780
0780
0780
0780
0780
0780
0780
0780
0780
0780
0780
0780
0780
0780
0780
0780
0780
0780
0780
0780
FF80
FF80
FF80
FF80
ENDCHAR
STARTCHAR asciicircum
ENCODING 94
SWIDTH 293 0
DWIDTH 9 0
BBX 9 6 0 16
BITMAP
0C00
1E00
3F00
FF80
F780
6300
ENDCHAR
STARTCHAR underscore
ENCODING 95
SWIDTH 598 0
DWIDTH 19 0
BBX 13 4 3 -7
BITMAP
FFF8
FFF8
FFF8
FFF8
ENDCHAR
STARTCHAR grave
ENCODING 96
SWIDTH 225 0
DWIDTH 7 0
BBX 7 6 0 16
BITMAP
30
78
FC
7E
1E
0C
ENDCHAR
STARTCHAR a
ENCODING 97
SWIDTH 607 0
DWIDTH 19 0
BBX 17 17 1 0
BITMAP
0FF080
1FF980
3FFF80
7FFF80
7C3F80
F81F80
F00F80
F00F80
F00780
F00F80
F00F80
F81F80
7C3F80
7FFF80
3FFF80
1FF980
0FF180
ENDCHAR
STARTCHAR b
ENCODING 98
SWIDTH 597 0
DWIDTH 19 0
BBX 17 23 1 0
BITMAP
F80000
F80000
F80000
F80000
F80000
F80000
FBF800
FFFC00
FFFE00
FFFF00
FE1F00
FC0F80
F80780
F80780
F80780
F80780
F80780
7C0F80
7E1F80
3FFF00
3FFE00
0FFC00
07F800
ENDCHAR
STARTCHAR c
ENCODING 99
SWIDTH 521 0
DWIDTH 17 0
BBX 15 17 1 0
BITMAP
07F0
1FF8
3FFC
7FFE
7C3C
F818
F800
F000
F000
F000
F000
F818
7C3C
7FFE
3FFE
1FF8
07F0
ENDCHAR
STARTCHAR d
ENCODING 100
SWIDTH 606 0
DWIDTH 19 0
BBX 17 23 1 0
BITMAP
000F80
000F80
000F80
000F80
000F80
000F80
0FFF80
1FFF80
3FFF80
7FFF80
7C3F80
F81F80
F00F80
F00F80
F00F80
F00F80
F00F80
F81F80
7C3F80
7FFF80
3FFF80
1FF980
07E180
ENDCHAR
STARTCHAR e
ENCODING 101
SWIDTH 524 0
DWIDTH 17 0
BBX 15 17 1 0
BITMAP
0FF0
1FFC
3FFE
7FFE
7C7C
F8F8
F0F8
F1F0
F3E0
F7C0
F780
FF08
7F3C
7FFE
3FFE
1FFC
07F0
ENDCHAR
STARTCHAR f
ENCODING 102
SWIDTH 395 0
DWIDTH 13 0
BBX 12 25 1 0
BITMAP
01F0
07F0
0FF0
1FF0
3F00
3E00
3C00
3C00
FFE0
FFE0
FFE0
FFE0
FFE0
3C00
3C00
3C00
3C00
3C00
3C00
3C00
3C00
3C00
3C00
3C00
3C00
ENDCHAR
STARTCHAR g
ENCODING 103
SWIDTH 607 0
DWIDTH 19 0
BBX 17 23 1 -6
BITMAP
07F080
1FF980
3FFF80
7FFF80
7C3F80
F81F80
F00F80
F00F80
F00780
F00F80
F00F80
F81F80
7C3F80
7FFF80
3FFF80
1FFF80
0FFF80
000F00
001F00
03FE00
03FE00
03FC00
03F000
ENDCHAR
STARTCHAR h
ENCODING 104
SWIDTH 562 0
DWIDTH 18 0
BBX 15 23 2 0
BITMAP
F000
F000
F000
F000
F000
F000
F7C0
FFF0
FFF8
FFF8
FCFC
F83C
F03E
F03E
F03E
F03E
F03E
F03E
F03E
F03E
F03E
F03E
F03E
ENDCHAR
STARTCHAR i
ENCODING 105
SWIDTH 235 0
DWIDTH 8 0
BBX 6 24 1 0
BITMAP
78
F8
FC
FC
78
20
00
78
78
78
78
78
78
78
78
78
78
78
78
78
78
78
78
78
ENDCHAR
STARTCHAR j
ENCODING 106
SWIDTH 237 0
DWIDTH 8 0
BBX 12 30 -5 -6
BITMAP
01E0
03E0
03F0
03F0
01E0
0000
0000
01E0
01E0
01E0
01E0
01E0
01E0
01E0
01E0
01E0
01E0
01E0
01E0
01E0
01E0
01E0
01E0
03E0
03E0
07C0
FFC0
FF80
FF00
FC00
ENDCHAR
STARTCHAR k
ENCODING 107
SWIDTH 539 0
DWIDTH 17 0
BBX 15 23 2 0
BITMAP
F000
F000
F000
F000
F000
F000
F03E
F07C
F078
F0F8
F1F0
F3E0
F7C0
F7C0
FFC0
FFE0
FFE0
FDF0
FCF8
F8F8
F07C
F07C
F03E
ENDCHAR
STARTCHAR l
ENCODING 108
SWIDTH 235 0
DWIDTH 8 0
BBX 4 23 2 0
BITMAP
F0
F0
F0
F0
F0
F0
F0
F0
F0
F0
F0
F0
F0
F0
F0
F0
F0
F0
F0
F0
F0
F0
F0
ENDCHAR
STARTCHAR m
ENCODING 109
SWIDTH 762 0
DWIDTH 24 0
BBX 21 17 2 0
BITMAP
8F0F80
FFDFE0
FFFFF0
FFFFF0
F9FDF8
F0F8F8
F0F078
F0F078
F0F078
F0F078
F0F078
F0F078
F0F078
F0F078
F0F078
F0F078
F0F078
ENDCHAR
STARTCHAR n
ENCODING 110
SWIDTH 562 0
DWIDTH 18 0
BBX 15 17 2 0
BITMAP
8FC0
DFF0
FFF8
FFF8
FCFC
F83C
F03E
F03E
F03E
F03E
F03E
F03E
F03E
F03E
F03E
F03E
F03E
ENDCHAR
STARTCHAR o
ENCODING 111
SWIDTH 579 0
DWIDTH 19 0
BBX 17 17 1 0
BITMAP
0FF000
1FFC00
3FFE00
7FFE00
7C3F00
F80F00
F00F80
F00F80
F00F80
F00F80
F00F80
F81F00
7C3F00
7FFE00
3FFE00
1FF800
07F000
ENDCHAR
STARTCHAR p
ENCODING 112
SWIDTH 608 0
DWIDTH 19 0
BBX 17 23 2 -6
BITMAP
87F000
DFFC00
FFFE00
FFFE00
FC3F00
F80F00
F00F80
F00F80
F00F80
F00F80
F00F80
F81F00
FC3F00
FFFE00
FFFE00
FFFC00
F7F000
F00000
F00000
F00000
F00000
F00000
F00000
ENDCHAR
STARTCHAR q
ENCODING 113
SWIDTH 607 0
DWIDTH 19 0
BBX 17 23 1 -6
BITMAP
07F080
1FF980
3FFF80
7FFF80
7C3F80
F81F80
F00F80
F00F80
F00780
F00F80
F00F80
F81F80
7C3F80
7FFF80
3FFF80
1FFF80
0FE780
000780
000780
000780
000780
000780
000780
ENDCHAR
STARTCHAR r
ENCODING 114
SWIDTH 414 0
DWIDTH 13 0
BBX 11 17 2 0
BITMAP
87E0
DFE0
FFE0
FFE0
FFE0
F800
F000
F000
F000
F000
F000
F000
F000
F000
F000
F000
F000
ENDCHAR
STARTCHAR s
ENCODING 115
SWIDTH 523 0
DWIDTH 17 0
BBX 15 17 1 0
BITMAP
0FFC
3FFC
7FFC
FFFC
FFFC
F000
F800
FFF8
7FFC
3FFE
1FFE
001E
003E
FFFE
FFFC
FFFC
FFF0
ENDCHAR
STARTCHAR t
ENCODING 116
SWIDTH 437 0
DWIDTH 14 0
BBX 13 23 0 0
BITMAP
1E00
1E00
1E00
1E00
1E00
1E00
FFF8
FFF8
FFF8
FFF8
FFF8
1E00
1E00
1E00
1E00
1E00
1E00
1E00
1F80
0FF8
0FF8
03F8
01F8
ENDCHAR
STARTCHAR u
ENCODING 117
SWIDTH 562 0
DWIDTH 18 0
BBX 15 17 1 0
BITMAP
F81E
F81E
F81E
F81E
F81E
F81E
F81E
F81E
F81E
F81E
F81E
783E
7C3E
7FFE
3FFE
1FF6
0FE2
ENDCHAR
STARTCHAR v
ENCODING 118
SWIDTH 532 0
DWIDTH 17 0
BBX 17 17 0 0
BITMAP
F80F80
F80F80
7C1F00
7C1F00
3C1E00
3E3E00
3E3E00
1E3C00
1F7C00
0F7C00
0F7800
0FF800
07F000
07F000
07F000
03E000
03E000
ENDCHAR
STARTCHAR w
ENCODING 119
SWIDTH 756 0
DWIDTH 24 0
BBX 22 17 1 0
BITMAP
F8787C
F8787C
F8787C
F8787C
F8787C
F8787C
F8787C
F8787C
F8787C
F8787C
F8787C
F8787C
78FC7C
7FFFF8
3FFFF8
3FFFF0
0FCFC0
ENDCHAR
STARTCHAR x
ENCODING 120
SWIDTH 528 0
DWIDTH 17 0
BBX 17 17 0 0
BITMAP
F80F80
7C1F00
3E3E00
3E7E00
1F7C00
0FF800
07F000
07F000
03E000
07F000
07F000
0FF800
1F7C00
3E3E00
3E3E00
7C1F00
F81F80
ENDCHAR
STARTCHAR y
ENCODING 121
SWIDTH 562 0
DWIDTH 18 0
BBX 15 23 1 -6
BITMAP
F81E
F81E
F81E
F81E
F81E
F81E
F81E
F81E
F81E
F81E
F81E
783E
7C3E
7FFE
3FFE
1FFE
0FFE
003E
007E
07FC
07F8
07F0
07E0
ENDCHAR
STARTCHAR z
ENCODING 122
SWIDTH 481 0
DWIDTH 15 0
BBX 14 17 1 0
BITMAP
FFFC
FFF8
FFF0
FFF0
FFE0
03E0
03C0
07C0
0780
0F80
1F00
1E00
3E00
3FFC
7FFC
7FFC
FFFC
ENDCHAR
STARTCHAR braceleft
ENCODING 123
SWIDTH 466 0
DWIDTH 15 0
BBX 13 29 1 -3
BITMAP
00F8
07F8
0FF8
0FF8
0FF8
0F00
0F00
0F00
0F00
0F00
0F00
1F00
FF00
FE00
FC00
FE00
FF00
1F00
0F00
0F00
0F00
0F00
0F00
0F00
0F00
0FF8
0FF8
07F8
03F8
ENDCHAR
STARTCHAR bar
ENCODING 124
SWIDTH 267 0
DWIDTH 9 0
BBX 5 29 2 -3
BITMAP
F8
F8
F8
F8
F8
F8
F8
F8
F8
F8
F8
F8
F8
F8
F8
F8
F8
F8
F8
F8
F8
F8
F8
F8
F8
F8
F8
F8
F8
ENDCHAR
STARTCHAR braceright
ENCODING 125
SWIDTH 466 0
DWIDTH 15 0
BBX 13 29 1 -3
BITMAP
F800
FF00
FF00
FF80
FF80
0780
0780
0780
0780
0780
0780
0780
07F8
03F8
01F8
03F8
07F8
07C0
0780
0780
0780
0780
0780
0780
0780
FF80
FF80
FF00
FE00
ENDCHAR
STARTCHAR asciitilde
ENCODING 126
SWIDTH 451 0
DWIDTH 14 0
BBX 11 6 2 9
BITMAP
30E0
FCE0
FFE0
FFE0
E7C0
E3C0
ENDCHAR
STARTCHAR nonbreakingspace
ENCODING 160
SWIDTH 279 0
DWIDTH 9 0
BBX 1 1 0 0
BITMAP
00
ENDCHAR
STARTCHAR exclamdown
ENCODING 161
SWIDTH 274 0
DWIDTH 9 0
BBX 5 24 2 -5
BITMAP
70
F8
F8
F8
F0
00
00
70
70
F0
F0
F0
F0
F8
F8
F8
F8
F8
F8
F8
F8
F8
F8
F8
ENDCHAR
STARTCHAR cent
ENCODING 162
SWIDTH 462 0
DWIDTH 15 0
BBX 13 22 1 0
BITMAP
0380
0380
0380
0380
1FE0
3FF0
7FF8
7870
7020
F000
F000
F000
F020
7870
7FF8
3FF0
0FE0
0380
0380
0380
0380
0380
ENDCHAR
STARTCHAR sterling
ENCODING 163
SWIDTH 681 0
DWIDTH 22 0
BBX 20 22 1 0
BITMAP
03F000
07F000
0FF000
0FF000
1F8000
1F0000
1F0000
1F0000
1F0000
FFE000
FFE000
FFE000
FFE000
1F0000
1F0000
1F01F0
1F01F0
1F07E0
1FFFE0
1FFFC0
1FFF80
1FFF00
ENDCHAR
STARTCHAR currency
ENCODING 164
SWIDTH 454 0
DWIDTH 15 0
BBX 13 13 1 4
BITMAP
6030
FFF8
FFF0
7FE0
70E0
7060
7060
70E0
38E0
7FF0
FFF8
6070
0020
ENDCHAR
STARTCHAR yen
ENCODING 165
SWIDTH 653 0
DWIDTH 21 0
BBX 18 22 1 0
BITMAP
F803C0
F803C0
F803C0
F803C0
F803C0
F803C0
F803C0
7803C0
7C07C0
7C07C0
3F1F80
3FFF80
1FFF00
07FC00
7FFFC0
7FFFC0
7FFFC0
7FFFC0
01F000
01F000
01F000
01F000
ENDCHAR
STARTCHAR brokenbar
ENCODING 166
SWIDTH 269 0
DWIDTH 9 0
BBX 5 29 2 -3
BITMAP
F8
F8
F8
F8
F8
F8
F8
F8
F8
F8
F8
F8
F8
00
00
00
F8
F8
F8
F8
F8
F8
F8
F8
F8
F8
F8
F8
F8
ENDCHAR
STARTCHAR section
ENCODING 167
SWIDTH 569 0
DWIDTH 18 0
BBX 15 22 2 0
BITMAP
3FFC
7FFC
FFFC
FFFC
F000
FFC0
FFF8
7FFC
FFFC
FFFE
F03E
F03E
FFFE
FFFC
7FFC
1FFE
003E
003E
FFFE
FFFC
FFF8
FFF0
ENDCHAR
STARTCHAR dieresis
ENCODING 168
SWIDTH 300 0
DWIDTH 10 0
BBX 10 4 0 17
BITMAP
6180
F3C0
F3C0
6380
ENDCHAR
STARTCHAR copyright
ENCODING 169
SWIDTH 655 0
DWIDTH 21 0
BBX 19 18 1 2
BITMAP
03F800
0FFE00
1E0F00
386380
73F980
77B9C0
6600C0
EC00C0
EC00E0
EC00E0
6E00C0
6600C0
77F9C0
3BFB80
3C0780
1F1F00
07FC00
01F000
ENDCHAR
STARTCHAR ordfeminine
ENCODING 170
SWIDTH 451 0
DWIDTH 14 0
BBX 10 15 2 8
BITMAP
1C00
7F40
7FC0
E1C0
E1C0
C1C0
E1C0
E1C0
7FC0
7F40
1C40
0000
0000
FFC0
FFC0
ENDCHAR
STARTCHAR guillemotleft
ENCODING 171
SWIDTH 704 0
DWIDTH 23 0
BBX 20 16 1 0
BITMAP
018040
03C0E0
07E1F0
0FC3E0
1F87C0
3F0F80
7E1F00
FC3E00
FC3F00
7E1F80
3F0FC0
1F87E0
07C3F0
03C1F0
0180E0
000040
ENDCHAR
STARTCHAR logicalnot
ENCODING 172
SWIDTH 529 0
DWIDTH 17 0
BBX 13 7 2 6
BITMAP
FFF8
FFF8
FFF8
FFF8
0078
0078
0078
ENDCHAR
STARTCHAR uni00AD
ENCODING 173
SWIDTH 418 0
DWIDTH 13 0
BBX 10 4 2 9
BITMAP
FFC0
FFC0
FFC0
FFC0
ENDCHAR
STARTCHAR registered
ENCODING 174
SWIDTH 439 0
DWIDTH 14 0
BBX 12 12 1 11
BITMAP
0200
1F80
30E0
6F60
C9B0
C8B0
C9B0
CF30
4920
6960
3DC0
0F80
ENDCHAR
STARTCHAR macron
ENCODING 175
SWIDTH 247 0
DWIDTH 8 0
BBX 8 3 0 17
BITMAP
FF
FF
FF
ENDCHAR
STARTCHAR degree
ENCODING 176
SWIDTH 381 0
DWIDTH 12 0
BBX 10 10 1 12
BITMAP
1E00
3F80
7F80
FFC0
F1C0
F1C0
F3C0
7F80
3F80
1E00
ENDCHAR
STARTCHAR plusminus
ENCODING 177
SWIDTH 516 0
DWIDTH 17 0
BBX 13 17 2 0
BITMAP
0F00
0F00
0F00
0F00
FFF8
FFF8
FFF8
FFF8
0F00
0F00
0F00
0000
0000
FFF8
FFF8
FFF8
FFF8
ENDCHAR
STARTCHAR twosuperior
ENCODING 178
SWIDTH 355 0
DWIDTH 11 0
BBX 8 11 2 11
BITMAP
FE
FE
FF
0F
7E
FE
F8
FF
FF
FF
FF
ENDCHAR
STARTCHAR threesuperior
ENCODING 179
SWIDTH 354 0
DWIDTH 11 0
BBX 8 11 2 11
BITMAP
FE
FF
FF
0F
7F
7F
7F
0F
FF
FE
F8
ENDCHAR
STARTCHAR acute
ENCODING 180
SWIDTH 225 0
DWIDTH 7 0
BBX 7 6 0 16
BITMAP
08
1C
3E
FC
F8
60
ENDCHAR
STARTCHAR mu
ENCODING 181
SWIDTH 571 0
DWIDTH 18 0
BBX 15 24 2 -7
BITMAP
F01E
F01E
F01E
F01E
F01E
F01E
F01E
F01E
F01E
F01E
F03E
F83E
FC7E
FFFE
FFFE
FFF6
FFC2
F000
F000
F000
F000
E000
E000
E000
ENDCHAR
STARTCHAR paragraph
ENCODING 182
SWIDTH 808 0
DWIDTH 26 0
BBX 23 22 1 0
BITMAP
07FFFE
0FFFFE
1FFFFE
3FFFFE
7E3C3E
7C3C3E
F83C3E
F83C3E
F83C3E
F83C3E
F83C3E
7C3C3E
7E3C3E
3FFC3E
3FFC3E
0FFC3E
07FC3E
007C3E
003C3E
003C3E
003C3E
003C3E
ENDCHAR
STARTCHAR periodcentered
ENCODING 183
SWIDTH 261 0
DWIDTH 8 0
BBX 6 5 1 9
BITMAP
30
78
FC
7C
78
ENDCHAR
STARTCHAR cedilla
ENCODING 184
SWIDTH 208 0
DWIDTH 7 0
BBX 7 8 0 -7
BITMAP
18
18
38
3C
0E
7E
FC
78
ENDCHAR
STARTCHAR onesuperior
ENCODING 185
SWIDTH 231 0
DWIDTH 7 0
BBX 4 11 1 11
BITMAP
F0
F0
F0
70
70
70
70
70
70
70
70
ENDCHAR
STARTCHAR ordmasculine
ENCODING 186
SWIDTH 432 0
DWIDTH 14 0
BBX 10 15 2 8
BITMAP
1E00
7F00
7F80
E1C0
E1C0
C1C0
E1C0
E1C0
7F80
3F00
1C00
0000
0000
FFC0
FFC0
ENDCHAR
STARTCHAR guillemotright
ENCODING 187
SWIDTH 703 0
DWIDTH 23 0
BBX 20 16 1 0
BITMAP
300800
781C00
FC3E00
7E1F00
3F0F80
1F87C0
0FC3E0
07E1F0
07E1F0
0FC3E0
1F8FC0
3E1F80
7C3F00
781E00
301C00
000800
ENDCHAR
STARTCHAR onequarter
ENCODING 188
SWIDTH 648 0
DWIDTH 21 0
BBX 19 22 1 0
BITMAP
780E00
781E00
781C00
383C00
383800
387800
387000
38F000
38E000
39C000
3BC000
039C00
079DC0
0739C0
0F39C0
0E39C0
1E39C0
1C3FE0
383FE0
383FE0
7001C0
F001C0
ENDCHAR
STARTCHAR onehalf
ENCODING 189
SWIDTH 637 0
DWIDTH 20 0
BBX 18 22 1 0
BITMAP
780E00
781E00
781C00
383C00
383800
387800
387000
38F000
38E000
39C000
3BC000
039F80
079FC0
071FC0
0F01C0
0E0FC0
1E1FC0
1C3F00
383800
383FC0
703FC0
F03FC0
ENDCHAR
STARTCHAR threequarters
ENCODING 190
SWIDTH 708 0
DWIDTH 23 0
BBX 21 22 1 0
BITMAP
FE0380
FF0780
FF0700
070F00
3F0E00
3F1E00
3F1C00
073800
FF3800
FF7000
FCF000
00E700
01EFF0
01CEF0
03CEF0
038EF0
078EF0
070FF8
0E0FF8
1E1FF8
1C00F0
3C00F0
ENDCHAR
STARTCHAR questiondown
ENCODING 191
SWIDTH 602 0
DWIDTH 19 0
BBX 17 24 1 -5
BITMAP
007000
007800
00FC00
00FC00
007800
000000
000000
007800
007800
00F800
0FF800
1FF000
3FE000
7FC000
FE0000
F80000
F80000
F80000
F80000
7FFF80
7FFF80
3FFF80
1FFF80
01FF80
ENDCHAR
STARTCHAR Agrave
ENCODING 192
SWIDTH 673 0
DWIDTH 22 0
BBX 18 30 2 0
BITMAP
060000
0F0000
1F8000
0FC000
03C000
018000
000000
000000
07F800
1FFC00
3FFE00
7FFF00
7E1F80
FC0F80
F807C0
F007C0
F007C0
F007C0
F007C0
F007C0
F007C0
FFFFC0
FFFFC0
FFFFC0
FFFFC0
FFFFC0
F007C0
F007C0
F007C0
F007C0
ENDCHAR
STARTCHAR Aacute
ENCODING 193
SWIDTH 673 0
DWIDTH 22 0
BBX 18 30 2 0
BITMAP
001000
003800
007C00
00F800
01F000
00C000
000000
000000
07F800
1FFC00
3FFE00
7FFF00
7E1F80
FC0F80
F807C0
F007C0
F007C0
F007C0
F007C0
F007C0
F007C0
FFFFC0
FFFFC0
FFFFC0
FFFFC0
FFFFC0
F007C0
F007C0
F007C0
F007C0
ENDCHAR
STARTCHAR Acircumflex
ENCODING 194
SWIDTH 673 0
DWIDTH 22 0
BBX 18 29 2 0
BITMAP
00C000
01E000
03F000
07F800
073000
021000
000000
07F800
1FFC00
3FFE00
7FFF00
7E1F80
FC0F80
F807C0
F007C0
F007C0
F007C0
F007C0
F007C0
F007C0
FFFFC0
FFFFC0
FFFFC0
FFFFC0
FFFFC0
F007C0
F007C0
F007C0
F007C0
ENDCHAR
STARTCHAR Atilde
ENCODING 195
SWIDTH 673 0
DWIDTH 22 0
BBX 18 29 2 0
BITMAP
079C00
0FDC00
0FFC00
0EFC00
0E7800
000000
000000
07F800
1FFC00
3FFE00
7FFF00
7E1F80
FC0F80
F807C0
F007C0
F007C0
F007C0
F007C0
F007C0
F007C0
FFFFC0
FFFFC0
FFFFC0
FFFFC0
FFFFC0
F007C0
F007C0
F007C0
F007C0
ENDCHAR
STARTCHAR Adieresis
ENCODING 196
SWIDTH 673 0
DWIDTH 22 0
BBX 18 27 2 0
BITMAP
061800
0F3800
0F3C00
063800
000000
07F800
1FFC00
3FFE00
7FFF00
7E1F80
FC0F80
F807C0
F007C0
F007C0
F007C0
F007C0
F007C0
F007C0
FFFFC0
FFFFC0
FFFFC0
FFFFC0
FFFFC0
F007C0
F007C0
F007C0
F007C0
ENDCHAR
STARTCHAR Aring
ENCODING 197
SWIDTH 673 0
DWIDTH 22 0
BBX 18 27 2 0
BITMAP
03E000
03F000
033000
03F000
03E000
07F800
1FFC00
3FFE00
7FFF00
7E1F80
FC0F80
F807C0
F007C0
F007C0
F007C0
F007C0
F007C0
F007C0
FFFFC0
FFFFC0
FFFFC0
FFFFC0
FFFFC0
F007C0
F007C0
F007C0
F007C0
ENDCHAR
STARTCHAR AE
ENCODING 198
SWIDTH 988 0
DWIDTH 32 0
BBX 29 22 2 0
BITMAP
07FFFFF8
1FFFFFF8
3FFFFFF8
7FFFFFF8
7E07C000
FC07C000
F807C000
F007C000
F007C000
F007FF80
F007FF80
F007FF80
F007FF80
FFFFC000
FFFFC000
FFFFC000
FFFFC000
FFFFC000
F007FFF8
F007FFF8
F007FFF8
F007FFF8
ENDCHAR
STARTCHAR Ccedilla
ENCODING 199
SWIDTH 640 0
DWIDTH 20 0
BBX 19 30 1 -7
BITMAP
003C00
03FF80
07FFC0
1FFFE0
1FFFC0
3F01C0
7E0080
7C0000
F80000
F80000
F00000
F00000
F00000
F00000
F80000
F80000
7C0000
7E0080
3F83C0
1FFFC0
0FFFE0
07FFC0
01FF00
006000
00E000
00F000
003800
01F800
03F000
01F000
ENDCHAR
STARTCHAR Egrave
ENCODING 200
SWIDTH 578 0
DWIDTH 19 0
BBX 15 30 2 0
BITMAP
0C00
0E00
1F00
0F80
0780
0180
0000
0000
FFFE
FFFE
FFFE
FFFE
F800
F800
F800
F800
F800
FFF0
FFF0
FFF0
FFF0
F800
F800
F800
F800
F800
FFFE
FFFE
FFFE
FFFE
ENDCHAR
STARTCHAR Eacute
ENCODING 201
SWIDTH 578 0
DWIDTH 19 0
BBX 15 30 2 0
BITMAP
0020
0070
00F8
01F0
01E0
0180
0000
0000
FFFE
FFFE
FFFE
FFFE
F800
F800
F800
F800
F800
FFF0
FFF0
FFF0
FFF0
F800
F800
F800
F800
F800
FFFE
FFFE
FFFE
FFFE
ENDCHAR
STARTCHAR Ecircumflex
ENCODING 202
SWIDTH 578 0
DWIDTH 19 0
BBX 15 30 2 0
BITMAP
0180
03C0
07E0
0FF0
0E60
0420
0000
0000
FFFE
FFFE
FFFE
FFFE
F800
F800
F800
F800
F800
FFF0
FFF0
FFF0
FFF0
F800
F800
F800
F800
F800
FFFE
FFFE
FFFE
FFFE
ENDCHAR
STARTCHAR Edieresis
ENCODING 203
SWIDTH 578 0
DWIDTH 19 0
BBX 15 28 2 0
BITMAP
0C30
1E70
1E78
0C70
0000
0000
FFFE
FFFE
FFFE
FFFE
F800
F800
F800
F800
F800
FFF0
FFF0
FFF0
FFF0
F800
F800
F800
F800
F800
FFFE
FFFE
FFFE
FFFE
ENDCHAR
STARTCHAR Igrave
ENCODING 204
SWIDTH 270 0
DWIDTH 9 0
BBX 8 30 -1 0
BITMAP
20
70
F8
7E
3E
0C
00
00
1F
1F
1F
1F
1F
1F
1F
1F
1F
1F
1F
1F
1F
1F
1F
1F
1F
1F
1F
1F
1F
1F
ENDCHAR
STARTCHAR Iacute
ENCODING 205
SWIDTH 270 0
DWIDTH 9 0
BBX 7 30 2 0
BITMAP
0C
1E
3E
7E
78
30
00
00
F8
F8
F8
F8
F8
F8
F8
F8
F8
F8
F8
F8
F8
F8
F8
F8
F8
F8
F8
F8
F8
F8
ENDCHAR
STARTCHAR Icircumflex
ENCODING 206
SWIDTH 270 0
DWIDTH 9 0
BBX 8 30 0 0
BITMAP
18
3C
7E
FF
67
02
00
00
3E
3E
3E
3E
3E
3E
3E
3E
3E
3E
3E
3E
3E
3E
3E
3E
3E
3E
3E
3E
3E
3E
ENDCHAR
STARTCHAR Idieresis
ENCODING 207
SWIDTH 270 0
DWIDTH 9 0
BBX 9 28 0 0
BITMAP
E300
E780
E780
E380
0000
0000
3E00
3E00
3E00
3E00
3E00
3E00
3E00
3E00
3E00
3E00
3E00
3E00
3E00
3E00
3E00
3E00
3E00
3E00
3E00
3E00
3E00
3E00
ENDCHAR
STARTCHAR Eth
ENCODING 208
SWIDTH 672 0
DWIDTH 22 0
BBX 21 22 0 0
BITMAP
1FFC00
1FFF00
1FFF80
1FFFC0
1E0FE0
1E03E0
1E01F0
1E01F0
1E00F0
FFC0F8
FFC0F8
FFC0F8
FFC0F8
1E00F0
1E01F0
1E03F0
1E07E0
1E3FC0
1FFFC0
1FFF00
1FFE00
1FF800
ENDCHAR
STARTCHAR Ntilde
ENCODING 209
SWIDTH 689 0
DWIDTH 22 0
BBX 18 29 2 0
BITMAP
079C00
0FDC00
0FFC00
0EFC00
0E7800
000000
000000
F803C0
FC03C0
FE03C0
FE03C0
FF03C0
FF03C0
FF83C0
FFC3C0
FFC3C0
FBE3C0
FBE3C0
F9F3C0
F8F3C0
F8FBC0
F87FC0
F87FC0
F83FC0
F81FC0
F81FC0
F80FC0
F80FC0
F807C0
ENDCHAR
STARTCHAR Ograve
ENCODING 210
SWIDTH 777 0
DWIDTH 25 0
BBX 23 30 1 0
BITMAP
008000
01C000
03F000
01F800
00F800
003000
000000
003800
03FF80
07FFC0
1FFFE0
1FFFF0
3F01F8
7E00FC
7C007C
F8003E
F8003E
F0003E
F0001E
F0001E
F0003E
F8003E
F8003C
7C007C
7E00FC
3F83F8
1FFFF0
0FFFE0
07FFC0
01FF00
ENDCHAR
STARTCHAR Oacute
ENCODING 211
SWIDTH 777 0
DWIDTH 25 0
BBX 23 30 1 0
BITMAP
000200
000F00
001F80
003F00
003E00
001800
000000
003800
03FF80
07FFC0
1FFFE0
1FFFF0
3F01F8
7E00FC
7C007C
F8003E
F8003E
F0003E
F0001E
F0001E
F0003E
F8003E
F8003C
7C007C
7E00FC
3F83F8
1FFFF0
0FFFE0
07FFC0
01FF00
ENDCHAR
STARTCHAR Ocircumflex
ENCODING 212
SWIDTH 777 0
DWIDTH 25 0
BBX 23 30 1 0
BITMAP
001000
007800
00FC00
01FE00
00EE00
000400
000000
003800
03FF80
07FFC0
1FFFE0
1FFFF0
3F01F8
7E00FC
7C007C
F8003E
F8003E
F0003E
F0001E
F0001E
F0003E
F8003E
F8003C
7C007C
7E00FC
3F83F8
1FFFF0
0FFFE0
07FFC0
01FF00
ENDCHAR
STARTCHAR Otilde
ENCODING 213
SWIDTH 777 0
DWIDTH 25 0
BBX 23 29 1 0
BITMAP
01E700
01F380
03FF80
03DF00
018F00
000000
003800
03FF80
07FFC0
1FFFE0
1FFFF0
3F01F8
7E00FC
7C007C
F8003E
F8003E
F0003E
F0001E
F0001E
F0003E
F8003E
F8003C
7C007C
7E00FC
3F83F8
1FFFF0
0FFFE0
07FFC0
01FF00
ENDCHAR
STARTCHAR Odieresis
ENCODING 214
SWIDTH 777 0
DWIDTH 25 0
BBX 23 28 1 0
BITMAP
01C600
01EF00
01EF00
01C700
000000
003800
03FF80
07FFC0
1FFFE0
1FFFF0
3F01F8
7E00FC
7C007C
F8003E
F8003E
F0003E
F0001E
F0001E
F0003E
F8003E
F8003C
7C007C
7E00FC
3F83F8
1FFFF0
0FFFE0
07FFC0
01FF00
ENDCHAR
STARTCHAR multiply
ENCODING 215
SWIDTH 479 0
DWIDTH 15 0
BBX 13 12 1 5
BITMAP
3060
78F0
FDF8
7FF0
3FE0
1FC0
1FC0
3FE0
7FF0
7DF0
38E0
1040
ENDCHAR
STARTCHAR Oslash
ENCODING 216
SWIDTH 777 0
DWIDTH 25 0
BBX 23 23 1 0
BITMAP
003800
03FFF8
07FFF0
1FFFF0
1FFFF0
3F03F8
7E07FC
7C0FFC
F80F3E
F81E3E
F03E3E
F03C1E
F0781E
F0F03E
F9F03E
F9E03C
7FC07C
7F80FC
3F83F8
1FFFF0
1FFFE0
3FFFC0
7DFF00
ENDCHAR
STARTCHAR Ugrave
ENCODING 217
SWIDTH 673 0
DWIDTH 22 0
BBX 18 30 2 0
BITMAP
060000
070000
0F8000
0FC000
03C000
00C000
000000
000000
F007C0
F007C0
F007C0
F007C0
F007C0
F007C0
F007C0
F007C0
F007C0
F007C0
F007C0
F007C0
F007C0
F007C0
F807C0
F80F80
7C0F80
7FFF80
3FFF00
1FFE00
0FFC00
03F000
ENDCHAR
STARTCHAR Uacute
ENCODING 218
SWIDTH 673 0
DWIDTH 22 0
BBX 18 30 2 0
BITMAP
001800
003800
007C00
00F800
00F000
00C000
000000
000000
F007C0
F007C0
F007C0
F007C0
F007C0
F007C0
F007C0
F007C0
F007C0
F007C0
F007C0
F007C0
F007C0
F007C0
F807C0
F80F80
7C0F80
7FFF80
3FFF00
1FFE00
0FFC00
03F000
ENDCHAR
STARTCHAR Ucircumflex
ENCODING 219
SWIDTH 673 0
DWIDTH 22 0
BBX 18 29 2 0
BITMAP
00C000
01E000
03F000
07F800
073000
021000
000000
F007C0
F007C0
F007C0
F007C0
F007C0
F007C0
F007C0
F007C0
F007C0
F007C0
F007C0
F007C0
F007C0
F007C0
F807C0
F80F80
7C0F80
7FFF80
3FFF00
1FFE00
0FFC00
03F000
ENDCHAR
STARTCHAR Udieresis
ENCODING 220
SWIDTH 673 0
DWIDTH 22 0
BBX 18 27 2 0
BITMAP
061800
0F3800
0F3C00
063800
000000
F007C0
F007C0
F007C0
F007C0
F007C0
F007C0
F007C0
F007C0
F007C0
F007C0
F007C0
F007C0
F007C0
F007C0
F807C0
F80F80
7C0F80
7FFF80
3FFF00
1FFE00
0FFC00
03F000
ENDCHAR
STARTCHAR Yacute
ENCODING 221
SWIDTH 620 0
DWIDTH 20 0
BBX 18 30 1 0
BITMAP
001800
003800
007C00
00F800
00F000
00C000
000000
000000
F007C0
F007C0
F007C0
F007C0
F007C0
F007C0
F007C0
F807C0
F807C0
7C0F80
7E3F80
3FFF00
3FFE00
0FFC00
07F800
01E000
01E000
01E000
01E000
01E000
01E000
01E000
ENDCHAR
STARTCHAR Thorn
ENCODING 222
SWIDTH 637 0
DWIDTH 20 0
BBX 18 24 2 -1
BITMAP
F80000
F80000
F80000
FFF000
FFFC00
FFFE00
FFFF00
F83F80
F80F80
F807C0
F807C0
F807C0
F807C0
F807C0
F807C0
F80F80
FFFF80
FFFF00
FFFE00
FFFC00
FFE000
F80000
F80000
F80000
ENDCHAR
STARTCHAR germandbls
ENCODING 223
SWIDTH 813 0
DWIDTH 26 0
BBX 25 25 1 0
BITMAP
01FF0000
07FFC000
0FFFC000
1FFFE000
3F03E000
3E01F000
3C01F000
3C01F000
FC0FE000
FC3FE000
FC7FC000
FC7F8000
FCFC0000
3CF00000
3CF80000
3CFFFC00
3C7FFF00
3C3FFF00
3C1FFF80
3C000F80
3C000F80
3C7FFF00
3C7FFF00
3C7FFE00
3C7FFC00
ENDCHAR
STARTCHAR agrave
ENCODING 224
SWIDTH 607 0
DWIDTH 19 0
BBX 17 25 1 0
BITMAP
040000
0E0000
1F0000
0FC000
07C000
018000
000000
000000
0FF080
1FF980
3FFF80
7FFF80
7C3F80
F81F80
F00F80
F00F80
F00780
F00F80
F00F80
F81F80
7C3F80
7FFF80
3FFF80
1FF980
0FF180
ENDCHAR
STARTCHAR aacute
ENCODING 225
SWIDTH 607 0
DWIDTH 19 0
BBX 17 25 1 0
BITMAP
003000
007800
00F800
01F800
01E000
008000
000000
000000
0FF080
1FF980
3FFF80
7FFF80
7C3F80
F81F80
F00F80
F00F80
F00780
F00F80
F00F80
F81F80
7C3F80
7FFF80
3FFF80
1FF980
0FF180
ENDCHAR
STARTCHAR acircumflex
ENCODING 226
SWIDTH 607 0
DWIDTH 19 0
BBX 17 24 1 0
BITMAP
018000
03C000
07E000
0FF000
067000
002000
000000
0FF080
1FF980
3FFF80
7FFF80
7C3F80
F81F80
F00F80
F00F80
F00780
F00F80
F00F80
F81F80
7C3F80
7FFF80
3FFF80
1FF980
0FF180
ENDCHAR
STARTCHAR atilde
ENCODING 227
SWIDTH 607 0
DWIDTH 19 0
BBX 17 24 1 0
BITMAP
0F3800
1FB800
1FF800
1DF800
1C7000
000000
000000
0FF080
1FF980
3FFF80
7FFF80
7C3F80
F81F80
F00F80
F00F80
F00780
F00F80
F00F80
F81F80
7C3F80
7FFF80
3FFF80
1FF980
0FF180
ENDCHAR
STARTCHAR adieresis
ENCODING 228
SWIDTH 607 0
DWIDTH 19 0
BBX 17 22 1 0
BITMAP
0E3000
0E7800
1E7800
0E3800
000000
0FF080
1FF980
3FFF80
7FFF80
7C3F80
F81F80
F00F80
F00F80
F00780
F00F80
F00F80
F81F80
7C3F80
7FFF80
3FFF80
1FF980
0FF180
ENDCHAR
STARTCHAR aring
ENCODING 229
SWIDTH 607 0
DWIDTH 19 0
BBX 17 25 1 0
BITMAP
008000
03E000
07E000
066000
07E000
03E000
008000
000000
0FF080
1FF980
3FFF80
7FFF80
7C3F80
F81F80
F00F80
F00F80
F00780
F00F80
F00F80
F81F80
7C3F80
7FFF80
3FFF80
1FF980
0FF180
ENDCHAR
STARTCHAR ae
ENCODING 230
SWIDTH 976 0
DWIDTH 31 0
BBX 30 17 1 0
BITMAP
0FF09FC0
1FF9FFF0
3FFFFFF8
7FFFFFFC
7C3FF8F8
F81FE1F0
F00FE3E0
F00FE7C0
F007C780
F00FEF80
F00FFF00
F81FFE20
7C3FFC70
7FFFFFF8
3FFFFFF8
1FF9FFF0
0FF19FC0
ENDCHAR
STARTCHAR ccedilla
ENCODING 231
SWIDTH 521 0
DWIDTH 17 0
BBX 15 24 1 -7
BITMAP
07F0
1FF8
3FFC
7FFE
7C3C
F818
F800
F000
F000
F000
F000
F818
7C3C
7FFE
3FFE
1FFC
07F0
0180
0380
03C0
00E0
07E0
0FC0
07C0
ENDCHAR
STARTCHAR egrave
ENCODING 232
SWIDTH 524 0
DWIDTH 17 0
BBX 15 25 1 0
BITMAP
0C00
0E00
1F00
1F80
0780
0180
0000
0000
0FF0
1FFC
3FFE
7FFE
7C7C
F8F8
F0F8
F1F0
F3E0
F7C0
F780
FF08
7F3C
7FFE
3FFE
1FFC
07F0
ENDCHAR
STARTCHAR eacute
ENCODING 233
SWIDTH 524 0
DWIDTH 17 0
BBX 15 25 1 0
BITMAP
0030
0078
00F8
01F8
01E0
0080
0000
0000
0FF0
1FFC
3FFE
7FFE
7C7C
F8F8
F0F8
F1F0
F3E0
F7C0
F780
FF08
7F3C
7FFE
3FFE
1FFC
07F0
ENDCHAR
STARTCHAR ecircumflex
ENCODING 234
SWIDTH 524 0
DWIDTH 17 0
BBX 15 24 1 0
BITMAP
0100
0380
0FC0
1FF0
0EE0
0400
0000
0FF0
1FFC
3FFE
7FFE
7C7C
F8F8
F0F8
F1F0
F3E0
F7C0
F780
FF08
7F3C
7FFE
3FFE
1FFC
07F0
ENDCHAR
STARTCHAR edieresis
ENCODING 235
SWIDTH 524 0
DWIDTH 17 0
BBX 15 23 1 0
BITMAP
0C60
1E70
1EF0
1C70
0000
0000
0FF0
1FFC
3FFE
7FFE
7C7C
F8F8
F0F8
F1F0
F3E0
F7C0
F780
FF08
7F3C
7FFE
3FFE
1FFC
07F0
ENDCHAR
STARTCHAR igrave
ENCODING 236
SWIDTH 235 0
DWIDTH 8 0
BBX 7 24 -1 0
BITMAP
60
F0
F8
FC
3C
08
00
1E
1E
1E
1E
1E
1E
1E
1E
1E
1E
1E
1E
1E
1E
1E
1E
1E
ENDCHAR
STARTCHAR iacute
ENCODING 237
SWIDTH 235 0
DWIDTH 8 0
BBX 7 24 2 0
BITMAP
08
1C
3E
FC
F8
60
00
F0
F0
F0
F0
F0
F0
F0
F0
F0
F0
F0
F0
F0
F0
F0
F0
F0
ENDCHAR
STARTCHAR icircumflex
ENCODING 238
SWIDTH 235 0
DWIDTH 8 0
BBX 8 24 0 0
BITMAP
18
3C
7E
FF
E6
42
00
3C
3C
3C
3C
3C
3C
3C
3C
3C
3C
3C
3C
3C
3C
3C
3C
3C
ENDCHAR
STARTCHAR idieresis
ENCODING 239
SWIDTH 235 0
DWIDTH 8 0
BBX 10 22 -1 0
BITMAP
6180
F3C0
F3C0
6380
0000
1E00
1E00
1E00
1E00
1E00
1E00
1E00
1E00
1E00
1E00
1E00
1E00
1E00
1E00
1E00
1E00
1E00
ENDCHAR
STARTCHAR eth
ENCODING 240
SWIDTH 581 0
DWIDTH 19 0
BBX 17 24 1 0
BITMAP
03E000
01F000
1FFF00
1FFF00
1FFF00
007C00
003C00
07FE00
1FFE00
3FFF00
7FFF00
7C3F00
F80F00
F00F80
F00F80
F00F80
F00F80
F00F80
F81F00
7C3F00
7FFE00
3FFE00
1FF800
07F000
ENDCHAR
STARTCHAR ntilde
ENCODING 241
SWIDTH 562 0
DWIDTH 18 0
BBX 15 23 2 0
BITMAP
1E70
3F70
3FF0
3BF0
39E0
0000
8FC0
DFF0
FFF8
FFF8
FCFC
F83C
F03E
F03E
F03E
F03E
F03E
F03E
F03E
F03E
F03E
F03E
F03E
ENDCHAR
STARTCHAR ograve
ENCODING 242
SWIDTH 579 0
DWIDTH 19 0
BBX 17 25 1 0
BITMAP
040000
0E0000
1F0000
0F8000
07C000
018000
000000
000000
0FF000
1FFC00
3FFE00
7FFE00
7C3F00
F80F00
F00F80
F00F80
F00F80
F00F80
F00F80
F81F00
7C3F00
7FFE00
3FFE00
1FF800
07F000
ENDCHAR
STARTCHAR oacute
ENCODING 243
SWIDTH 579 0
DWIDTH 19 0
BBX 17 25 1 0
BITMAP
003000
007800
00F800
01F800
01E000
008000
000000
000000
0FF000
1FFC00
3FFE00
7FFE00
7C3F00
F80F00
F00F80
F00F80
F00F80
F00F80
F00F80
F81F00
7C3F00
7FFE00
3FFE00
1FF800
07F000
ENDCHAR
STARTCHAR ocircumflex
ENCODING 244
SWIDTH 579 0
DWIDTH 19 0
BBX 17 24 1 0
BITMAP
018000
03C000
07E000
0FF000
067000
002000
000000
0FF000
1FFC00
3FFE00
7FFE00
7C3F00
F80F00
F00F80
F00F80
F00F80
F00F80
F00F80
F81F00
7C3F00
7FFE00
3FFE00
1FF800
07F000
ENDCHAR
STARTCHAR otilde
ENCODING 245
SWIDTH 579 0
DWIDTH 19 0
BBX 17 24 1 0
BITMAP
0F3800
1FB800
1FF800
1DF800
1C7000
000000
000000
0FF000
1FFC00
3FFE00
7FFE00
7C3F00
F80F00
F00F80
F00F80
F00F80
F00F80
F00F80
F81F00
7C3F00
7FFE00
3FFE00
1FF800
07F000
ENDCHAR
STARTCHAR odieresis
ENCODING 246
SWIDTH 579 0
DWIDTH 19 0
BBX 17 22 1 0
BITMAP
0E3000
1E7800
1E7800
0E3000
000000
0FF000
1FFC00
3FFE00
7FFE00
7C3F00
F80F00
F00F80
F00F80
F00F80
F00F80
F00F80
F81F00
7C3F00
7FFE00
3FFE00
1FF800
07F000
ENDCHAR
STARTCHAR divide
ENCODING 247
SWIDTH 494 0
DWIDTH 16 0
BBX 13 15 1 4
BITMAP
0780
0780
0780
0780
0000
0000
FFF8
FFF8
FFF8
FFF8
0000
0780
0780
0780
0780
ENDCHAR
STARTCHAR oslash
ENCODING 248
SWIDTH 579 0
DWIDTH 19 0
BBX 17 17 1 0
BITMAP
0FFF00
1FFF00
3FFE00
7FFE00
7C7F00
F8FF00
F0FF80
F1EF80
F3EF80
F7CF80
F78F80
FF1F00
7F3F00
7FFE00
3FFE00
7FF800
FFF000
ENDCHAR
STARTCHAR ugrave
ENCODING 249
SWIDTH 562 0
DWIDTH 18 0
BBX 15 24 1 0
BITMAP
0C00
1E00
1F00
1F80
0780
0100
0000
F81E
F81E
F81E
F81E
F81E
F81E
F81E
F81E
F81E
F81E
F81E
783E
7C3E
7FFE
3FFE
1FF6
0FE2
ENDCHAR
STARTCHAR uacute
ENCODING 250
SWIDTH 562 0
DWIDTH 18 0
BBX 15 24 1 0
BITMAP
0030
0070
00F8
01F0
01E0
0180
0000
F81E
F81E
F81E
F81E
F81E
F81E
F81E
F81E
F81E
F81E
F81E
783E
7C3E
7FFE
3FFE
1FF6
0FE2
ENDCHAR
STARTCHAR ucircumflex
ENCODING 251
SWIDTH 562 0
DWIDTH 18 0
BBX 15 24 1 0
BITMAP
0180
03C0
07E0
0FF0
0E70
0420
0000
F81E
F81E
F81E
F81E
F81E
F81E
F81E
F81E
F81E
F81E
F81E
783E
7C3E
7FFE
3FFE
1FF6
0FE2
ENDCHAR
STARTCHAR udieresis
ENCODING 252
SWIDTH 562 0
DWIDTH 18 0
BBX 15 22 1 0
BITMAP
0C30
1E78
1E78
0C70
0000
F81E
F81E
F81E
F81E
F81E
F81E
F81E
F81E
F81E
F81E
F81E
783E
7C3E
7FFE
3FFE
1FF6
0FE2
ENDCHAR
STARTCHAR yacute
ENCODING 253
SWIDTH 562 0
DWIDTH 18 0
BBX 15 30 1 -6
BITMAP
0020
0070
00F8
01F0
01E0
0180
0000
F81E
F81E
F81E
F81E
F81E
F81E
F81E
F81E
F81E
F81E
F81E
783E
7C3E
7FFE
3FFE
1FFE
0FFE
003E
007E
07FC
07F8
07F0
07E0
ENDCHAR
STARTCHAR thorn
ENCODING 254
SWIDTH 608 0
DWIDTH 19 0
BBX 17 30 2 -6
BITMAP
F00000
F00000
F00000
F00000
F00000
F00000
F00000
F7F000
FFFC00
FFFE00
FFFE00
FC3F00
F81F00
F00F80
F00F80
F00F80
F00F80
F00F80
F81F00
FC3F00
FFFE00
FFFE00
FFFC00
F7F000
F00000
F00000
F00000
F00000
F00000
F00000
ENDCHAR
STARTCHAR ydieresis
ENCODING 255
SWIDTH 562 0
DWIDTH 18 0
BBX 15 28 1 -6
BITMAP
0C30
1E78
1E78
0C70
0000
F81E
F81E
F81E
F81E
F81E
F81E
F81E
F81E
F81E
F81E
F81E
783E
7C3E
7FFE
3FFE
1FFE
0FFE
003E
007E
07FC
07F8
07F0
07E0
ENDCHAR
STARTCHAR Amacron
ENCODING 256
SWIDTH 673 0
DWIDTH 22 0
BBX 18 27 2 0
BITMAP
07F800
07F800
07F800
000000
000000
07F800
1FFC00
3FFE00
7FFF00
7E1F80
FC0F80
F807C0
F007C0
F007C0
F007C0
F007C0
F007C0
F007C0
FFFFC0
FFFFC0
FFFFC0
FFFFC0
FFFFC0
F007C0
F007C0
F007C0
F007C0
ENDCHAR
STARTCHAR amacron
ENCODING 257
SWIDTH 607 0
DWIDTH 19 0
BBX 17 22 1 0
BITMAP
0FF000
0FF000
0FF000
000000
000000
0FF080
1FF980
3FFF80
7FFF80
7C3F80
F81F80
F00F80
F00F80
F00780
F00F80
F00F80
F81F80
7C3F80
7FFF80
3FFF80
1FF980
0FF180
ENDCHAR
STARTCHAR Abreve
ENCODING 258
SWIDTH 673 0
DWIDTH 22 0
BBX 18 29 2 0
BITMAP
077000
077000
07F000
03F000
01C000
000000
000000
07F800
1FFC00
3FFE00
7FFF00
7E1F80
FC0F80
F807C0
F007C0
F007C0
F007C0
F007C0
F007C0
F007C0
FFFFC0
FFFFC0
FFFFC0
FFFFC0
FFFFC0
F007C0
F007C0
F007C0
F007C0
ENDCHAR
STARTCHAR abreve
ENCODING 259
SWIDTH 607 0
DWIDTH 19 0
BBX 17 23 1 0
BITMAP
066000
0E6000
07E000
07E000
03C000
000000
0FF080
1FF980
3FFF80
7FFF80
7C3F80
F81F80
F00F80
F00F80
F00780
F00F80
F00F80
F81F80
7C3F80
7FFF80
3FFF80
1FF980
0FF180
ENDCHAR
STARTCHAR Aogonek
ENCODING 260
SWIDTH 673 0
DWIDTH 22 0
BBX 18 28 2 -6
BITMAP
07F800
1FFC00
3FFE00
7FFF00
7E1F80
FC0F80
F807C0
F007C0
F007C0
F007C0
F007C0
F007C0
F007C0
FFFFC0
FFFFC0
FFFFC0
FFFFC0
FFFFC0
F007C0
F007C0
F007C0
F007C0
000700
000600
000E80
000FC0
0007C0
000300
ENDCHAR
STARTCHAR aogonek
ENCODING 261
SWIDTH 607 0
DWIDTH 19 0
BBX 19 23 1 -6
BITMAP
0FF080
1FF980
3FFF80
7FFF80
7C3F80
F81F80
F00F80
F00F80
F00780
F00F80
F00F80
F81F80
7C3F80
7FFF80
3FFF80
1FF980
0FF180
000300
000700
000740
0007E0
0007E0
000180
ENDCHAR
STARTCHAR Cacute
ENCODING 262
SWIDTH 640 0
DWIDTH 20 0
BBX 19 30 1 0
BITMAP
000400
000E00
001F00
003E00
007C00
003000
000000
003C00
03FF80
07FFC0
1FFFE0
1FFFC0
3F01C0
7E0080
7C0000
F80000
F80000
F00000
F00000
F00000
F00000
F80000
F80000
7C0000
7E0080
3F83C0
1FFFC0
0FFFE0
07FFC0
01FF00
ENDCHAR
STARTCHAR cacute
ENCODING 263
SWIDTH 521 0
DWIDTH 17 0
BBX 15 25 1 0
BITMAP
0020
0070
00F8
01F0
01E0
0180
0000
0000
07F0
1FF8
3FFC
7FFE
7C3C
F818
F800
F000
F000
F000
F000
F818
7C3C
7FFE
3FFE
1FF8
07F0
ENDCHAR
STARTCHAR Ccircumflex
ENCODING 264
SWIDTH 640 0
DWIDTH 20 0
BBX 19 30 1 0
BITMAP
003000
007800
00FC00
01FE00
01CC00
008400
000000
003C00
03FF80
07FFC0
1FFFE0
1FFFC0
3F01C0
7E0080
7C0000
F80000
F80000
F00000
F00000
F00000
F00000
F80000
F80000
7C0000
7E0080
3F83C0
1FFFC0
0FFFE0
07FFC0
01FF00
ENDCHAR
STARTCHAR ccircumflex
ENCODING 265
SWIDTH 521 0
DWIDTH 17 0
BBX 15 24 1 0
BITMAP
0180
03C0
07E0
0FF0
0670
0420
0000
07F0
1FF8
3FFC
7FFE
7C3C
F818
F800
F000
F000
F000
F000
F818
7C3C
7FFE
3FFE
1FF8
07F0
ENDCHAR
STARTCHAR Cdotaccent
ENCODING 266
SWIDTH 640 0
DWIDTH 20 0
BBX 19 28 1 0
BITMAP
003800
007800
007800
003000
000000
003C00
03FF80
07FFC0
1FFFE0
1FFFC0
3F01C0
7E0080
7C0000
F80000
F80000
F00000
F00000
F00000
F00000
F80000
F80000
7C0000
7E0080
3F83C0
1FFFC0
0FFFE0
07FFC0
01FF00
ENDCHAR
STARTCHAR cdotaccent
ENCODING 267
SWIDTH 521 0
DWIDTH 17 0
BBX 15 23 1 0
BITMAP
01C0
03C0
03C0
0180
0000
0000
07F0
1FF8
3FFC
7FFE
7C3C
F818
F800
F000
F000
F000
F000
F818
7C3C
7FFE
3FFE
1FF8
07F0
ENDCHAR
STARTCHAR Ccaron
ENCODING 268
SWIDTH 640 0
DWIDTH 20 0
BBX 19 29 1 0
BITMAP
00C600
01FE00
00FE00
007C00
003800
000000
003C00
03FF80
07FFC0
1FFFE0
1FFFC0
3F01C0
7E0080
7C0000
F80000
F80000
F00000
F00000
F00000
F00000
F80000
F80000
7C0000
7E0080
3F83C0
1FFFC0
0FFFE0
07FFC0
01FF00
ENDCHAR
STARTCHAR ccaron
ENCODING 269
SWIDTH 521 0
DWIDTH 17 0
BBX 15 24 1 0
BITMAP
0630
0FF0
07F0
03E0
01C0
0080
0000
07F0
1FF8
3FFC
7FFE
7C3C
F818
F800
F000
F000
F000
F000
F818
7C3C
7FFE
3FFE
1FF8
07F0
ENDCHAR
STARTCHAR Dcaron
ENCODING 270
SWIDTH 653 0
DWIDTH 21 0
BBX 18 29 2 0
BITMAP
063000
0F7800
07F000
03E000
01C000
008000
000000
FFE000
FFF800
FFFC00
FFFE00
F87F00
F81F80
F80F80
F807C0
F807C0
F807C0
F803C0
F807C0
F807C0
F807C0
F80F80
F80F80
F83F00
F9FF00
FFFE00
FFFC00
FFF000
FFC000
ENDCHAR
STARTCHAR dcaron
ENCODING 271
SWIDTH 740 0
DWIDTH 24 0
BBX 23 23 1 0
BITMAP
000F80
000F9C
000FBE
000F9E
000F9C
000F8C
0FFF88
1FFF80
3FFF80
7FFF80
7C3F80
F81F80
F00F80
F00F80
F00F80
F00F80
F00F80
F81F80
7C3F80
7FFF80
3FFF80
1FF980
07E180
ENDCHAR
STARTCHAR Dcroat
ENCODING 272
SWIDTH 672 0
DWIDTH 22 0
BBX 21 22 0 0
BITMAP
1FFC00
1FFF00
1FFF80
1FFFC0
1E0FE0
1E03E0
1E01F0
1E01F0
1E00F0
FFC0F8
FFC0F8
FFC0F8
FFC0F8
1E00F0
1E01F0
1E03F0
1E07E0
1E3FC0
1FFFC0
1FFF00
1FFE00
1FF800
ENDCHAR
STARTCHAR dcroat
ENCODING 273
SWIDTH 606 0
DWIDTH 19 0
BBX 18 23 1 0
BITMAP
000F80
001FC0
001FC0
001FC0
001FC0
000F80
0FFF80
1FFF80
3FFF80
7FFF80
7C3F80
F81F80
F00F80
F00F80
F00F80
F00F80
F00F80
F81F80
7C3F80
7FFF80
3FFF80
1FF980
07E180
ENDCHAR
STARTCHAR Emacron
ENCODING 274
SWIDTH 578 0
DWIDTH 19 0
BBX 15 27 2 0
BITMAP
0FF0
0FF0
0FF0
0000
0000
FFFE
FFFE
FFFE
FFFE
F800
F800
F800
F800
F800
FFF0
FFF0
FFF0
FFF0
F800
F800
F800
F800
F800
FFFE
FFFE
FFFE
FFFE
ENDCHAR
STARTCHAR emacron
ENCODING 275
SWIDTH 524 0
DWIDTH 17 0
BBX 15 22 1 0
BITMAP
0FF0
0FF0
0FF0
0000
0000
0FF0
1FFC
3FFE
7FFE
7C7C
F8F8
F0F8
F1F0
F3E0
F7C0
F780
FF08
7F3C
7FFE
3FFE
1FFC
07F0
ENDCHAR
STARTCHAR Ebreve
ENCODING 276
SWIDTH 578 0
DWIDTH 19 0
BBX 15 29 2 0
BITMAP
0EE0
0EE0
0FE0
07E0
0380
0000
0000
FFFE
FFFE
FFFE
FFFE
F800
F800
F800
F800
F800
FFF0
FFF0
FFF0
FFF0
F800
F800
F800
F800
F800
FFFE
FFFE
FFFE
FFFE
ENDCHAR
STARTCHAR ebreve
ENCODING 277
SWIDTH 524 0
DWIDTH 17 0
BBX 15 23 1 0
BITMAP
0EE0
0E60
0FE0
07E0
0380
0000
0FF0
1FFC
3FFE
7FFE
7C7C
F8F8
F0F8
F1F0
F3E0
F7C0
F780
FF08
7F3C
7FFE
3FFE
1FFC
07F0
ENDCHAR
STARTCHAR Edotaccent
ENCODING 278
SWIDTH 578 0
DWIDTH 19 0
BBX 15 28 2 0
BITMAP
0380
03C0
03C0
0180
0000
0000
FFFE
FFFE
FFFE
FFFE
F800
F800
F800
F800
F800
FFF0
FFF0
FFF0
FFF0
F800
F800
F800
F800
F800
FFFE
FFFE
FFFE
FFFE
ENDCHAR
STARTCHAR edotaccent
ENCODING 279
SWIDTH 524 0
DWIDTH 17 0
BBX 15 23 1 0
BITMAP
01C0
03C0
03C0
0180
0000
0000
0FF0
1FFC
3FFE
7FFE
7C7C
F8F8
F0F8
F1F0
F3E0
F7C0
F780
FF08
7F3C
7FFE
3FFE
1FFC
07F0
ENDCHAR
STARTCHAR Eogonek
ENCODING 280
SWIDTH 578 0
DWIDTH 19 0
BBX 15 28 2 -6
BITMAP
FFFE
FFFE
FFFE
FFFE
F800
F800
F800
F800
F800
FFF0
FFF0
FFF0
FFF0
F800
F800
F800
F800
F800
FFFE
FFFE
FFFE
FFFE
0030
0070
0074
007E
007E
0018
ENDCHAR
STARTCHAR eogonek
ENCODING 281
SWIDTH 524 0
DWIDTH 17 0
BBX 15 23 1 -6
BITMAP
0FF0
1FFC
3FFE
7FFE
7C7C
F8F8
F0F8
F1F0
F3E0
F7C0
F780
FF08
7F3C
7FFE
3FFE
1FFC
07F0
0060
00E0
00E8
00FC
00FC
0030
ENDCHAR
STARTCHAR Ecaron
ENCODING 282
SWIDTH 578 0
DWIDTH 19 0
BBX 15 29 2 0
BITMAP
0E60
0FF0
07E0
03C0
0180
0000
0000
FFFE
FFFE
FFFE
FFFE
F800
F800
F800
F800
F800
FFF0
FFF0
FFF0
FFF0
F800
F800
F800
F800
F800
FFFE
FFFE
FFFE
FFFE
ENDCHAR
STARTCHAR ecaron
ENCODING 283
SWIDTH 524 0
DWIDTH 17 0
BBX 15 25 1 0
BITMAP
0400
0660
0FF0
07E0
03C0
0180
0000
0000
0FF0
1FFC
3FFE
7FFE
7C7C
F8F8
F0F8
F1F0
F3E0
F7C0
F780
FF08
7F3C
7FFE
3FFE
1FFC
07F0
ENDCHAR
STARTCHAR Gcircumflex
ENCODING 284
SWIDTH 665 0
DWIDTH 21 0
BBX 19 29 1 0
BITMAP
003000
007800
00FC00
01FE00
01CE00
008400
003800
03FF00
07FFC0
1FFFE0
1FFFC0
3F0380
7E0080
7C0000
F80000
F80000
F00000
F00000
F001E0
F001E0
F801E0
F801E0
7C01E0
7E01E0
3F83E0
1FFFE0
0FFFE0
07FFC0
01FF00
ENDCHAR
STARTCHAR gcircumflex
ENCODING 285
SWIDTH 607 0
DWIDTH 19 0
BBX 17 30 1 -6
BITMAP
018000
03C000
07E000
0FF000
067000
042000
000000
07F080
1FF980
3FFF80
7FFF80
7C3F80
F81F80
F00F80
F00F80
F00780
F00F80
F00F80
F81F80
7C3F80
7FFF80
3FFF80
1FFF80
0FFF80
000F00
001F00
03FE00
03FE00
03FC00
03F000
ENDCHAR
STARTCHAR Gbreve
ENCODING 286
SWIDTH 665 0
DWIDTH 21 0
BBX 19 29 1 0
BITMAP
00CC00
00CE00
00FC00
00FC00
003800
000000
003800
03FF00
07FFC0
1FFFE0
1FFFC0
3F0380
7E0080
7C0000
F80000
F80000
F00000
F00000
F001E0
F001E0
F801E0
F801E0
7C01E0
7E01E0
3F83E0
1FFFE0
0FFFE0
07FFC0
01FF00
ENDCHAR
STARTCHAR gbreve
ENCODING 287
SWIDTH 607 0
DWIDTH 19 0
BBX 17 29 1 -6
BITMAP
076000
067000
07F000
07E000
01C000
000000
07F080
1FF980
3FFF80
7FFF80
7C3F80
F81F80
F00F80
F00F80
F00780
F00F80
F00F80
F81F80
7C3F80
7FFF80
3FFF80
1FFF80
0FFF80
000F00
001F00
03FE00
03FE00
03FC00
03F000
ENDCHAR
STARTCHAR Gdotaccent
ENCODING 288
SWIDTH 665 0
DWIDTH 21 0
BBX 19 28 1 0
BITMAP
007000
007800
007800
003000
000000
003800
03FF00
07FFC0
1FFFE0
1FFFC0
3F0380
7E0080
7C0000
F80000
F80000
F00000
F00000
F001E0
F001E0
F801E0
F801E0
7C01E0
7E01E0
3F83E0
1FFFE0
0FFFE0
07FFC0
01FF00
ENDCHAR
STARTCHAR gdotaccent
ENCODING 289
SWIDTH 607 0
DWIDTH 19 0
BBX 17 28 1 -6
BITMAP
01C000
03C000
03C000
018000
000000
07F080
1FF980
3FFF80
7FFF80
7C3F80
F81F80
F00F80
F00F80
F00780
F00F80
F00F80
F81F80
7C3F80
7FFF80
3FFF80
1FFF80
0FFF80
000F00
001F00
03FE00
03FE00
03FC00
03F000
ENDCHAR
STARTCHAR Gcommaaccent
ENCODING 290
SWIDTH 665 0
DWIDTH 21 0
BBX 19 31 1 -8
BITMAP
003800
03FF00
07FFC0
1FFFE0
1FFFC0
3F0380
7E0080
7C0000
F80000
F80000
F00000
F00000
F001E0
F001E0
F801E0
F801E0
7C01E0
7E01E0
3F83E0
1FFFE0
0FFFE0
07FFC0
01FF00
000000
000000
007800
007800
007800
003800
003000
003000
ENDCHAR
STARTCHAR gcommaaccent
ENCODING 291
SWIDTH 607 0
DWIDTH 19 0
BBX 17 31 1 -6
BITMAP
018000
038000
03C000
03C000
03C000
018000
000000
000000
07F080
1FF980
3FFF80
7FFF80
7C3F80
F81F80
F00F80
F00F80
F00780
F00F80
F00F80
F81F80
7C3F80
7FFF80
3FFF80
1FFF80
0FFF80
000F00
001F00
03FE00
03FE00
03FC00
03F000
ENDCHAR
STARTCHAR Hcircumflex
ENCODING 292
SWIDTH 689 0
DWIDTH 22 0
BBX 18 29 2 0
BITMAP
00C000
01E000
03F000
07F800
073800
021000
000000
F803C0
F803C0
F803C0
F803C0
F803C0
F803C0
F803C0
F803C0
F803C0
FFFFC0
FFFFC0
FFFFC0
FFFFC0
F803C0
F803C0
F803C0
F803C0
F803C0
F803C0
F803C0
F803C0
F803C0
ENDCHAR
STARTCHAR hcircumflex
ENCODING 293
SWIDTH 562 0
DWIDTH 18 0
BBX 15 24 2 0
BITMAP
00C0
F1E0
F3F0
F7F8
F738
F210
F000
F7C0
FFF0
FFF8
FFF8
FCFC
F83C
F03E
F03E
F03E
F03E
F03E
F03E
F03E
F03E
F03E
F03E
F03E
ENDCHAR
STARTCHAR Hbar
ENCODING 294
SWIDTH 689 0
DWIDTH 22 0
BBX 22 22 0 0
BITMAP
3E00F0
3E00F0
FFFFFC
FFFFFC
FFFFFC
FFFFFC
FFFFFC
3E00F0
3E00F0
3FFFF0
3FFFF0
3FFFF0
3FFFF0
3E00F0
3E00F0
3E00F0
3E00F0
3E00F0
3E00F0
3E00F0
3E00F0
3E00F0
ENDCHAR
STARTCHAR hbar
ENCODING 295
SWIDTH 562 0
DWIDTH 18 0
BBX 17 23 0 0
BITMAP
3C0000
FE0000
FE0000
FE0000
FE0000
3C0000
3DF000
3FFC00
3FFE00
3FFE00
3F3F00
3E0F00
3C0F80
3C0F80
3C0F80
3C0F80
3C0F80
3C0F80
3C0F80
3C0F80
3C0F80
3C0F80
3C0F80
ENDCHAR
STARTCHAR Itilde
ENCODING 296
SWIDTH 270 0
DWIDTH 9 0
BBX 10 29 -1 0
BITMAP
79C0
FDC0
FFC0
F7C0
E380
0000
0000
1F00
1F00
1F00
1F00
1F00
1F00
1F00
1F00
1F00
1F00
1F00
1F00
1F00
1F00
1F00
1F00
1F00
1F00
1F00
1F00
1F00
1F00
ENDCHAR
STARTCHAR itilde
ENCODING 297
SWIDTH 235 0
DWIDTH 8 0
BBX 10 23 -1 0
BITMAP
79C0
FDC0
FFC0
EFC0
E780
0000
1E00
1E00
1E00
1E00
1E00
1E00
1E00
1E00
1E00
1E00
1E00
1E00
1E00
1E00
1E00
1E00
1E00
ENDCHAR
STARTCHAR Imacron
ENCODING 298
SWIDTH 270 0
DWIDTH 9 0
BBX 8 27 0 0
BITMAP
FF
FF
FF
00
00
3E
3E
3E
3E
3E
3E
3E
3E
3E
3E
3E
3E
3E
3E
3E
3E
3E
3E
3E
3E
3E
3E
ENDCHAR
STARTCHAR imacron
ENCODING 299
SWIDTH 235 0
DWIDTH 8 0
BBX 8 21 0 0
BITMAP
FF
FF
FF
00
3C
3C
3C
3C
3C
3C
3C
3C
3C
3C
3C
3C
3C
3C
3C
3C
3C
ENDCHAR
STARTCHAR Ibreve
ENCODING 300
SWIDTH 270 0
DWIDTH 9 0
BBX 7 29 1 0
BITMAP
EE
EE
FE
7C
38
00
00
7C
7C
7C
7C
7C
7C
7C
7C
7C
7C
7C
7C
7C
7C
7C
7C
7C
7C
7C
7C
7C
7C
ENDCHAR
STARTCHAR ibreve
ENCODING 301
SWIDTH 235 0
DWIDTH 8 0
BBX 7 23 0 0
BITMAP
EE
E6
FE
7E
38
00
3C
3C
3C
3C
3C
3C
3C
3C
3C
3C
3C
3C
3C
3C
3C
3C
3C
ENDCHAR
STARTCHAR Iogonek
ENCODING 302
SWIDTH 270 0
DWIDTH 9 0
BBX 6 28 1 -6
BITMAP
7C
7C
7C
7C
7C
7C
7C
7C
7C
7C
7C
7C
7C
7C
7C
7C
7C
7C
7C
7C
7C
7C
70
E0
E8
FC
7C
30
ENDCHAR
STARTCHAR iogonek
ENCODING 303
SWIDTH 235 0
DWIDTH 8 0
BBX 6 30 1 -6
BITMAP
78
F8
FC
FC
78
20
00
78
78
78
78
78
78
78
78
78
78
78
78
78
78
78
78
78
60
E0
E8
FC
FC
30
ENDCHAR
STARTCHAR Idotaccent
ENCODING 304
SWIDTH 270 0
DWIDTH 9 0
BBX 5 28 2 0
BITMAP
70
F0
F0
60
00
00
F8
F8
F8
F8
F8
F8
F8
F8
F8
F8
F8
F8
F8
F8
F8
F8
F8
F8
F8
F8
F8
F8
ENDCHAR
STARTCHAR dotlessi
ENCODING 305
SWIDTH 235 0
DWIDTH 8 0
BBX 4 17 2 0
BITMAP
F0
F0
F0
F0
F0
F0
F0
F0
F0
F0
F0
F0
F0
F0
F0
F0
F0
ENDCHAR
STARTCHAR IJ
ENCODING 306
SWIDTH 687 0
DWIDTH 22 0
BBX 18 22 2 0
BITMAP
F803C0
F803C0
F803C0
F803C0
F803C0
F803C0
F803C0
F803C0
F803C0
F803C0
F803C0
F803C0
F803C0
F803C0
F807C0
F807C0
F80F80
F9FF80
F9FF00
F9FE00
F9FC00
F9F000
ENDCHAR
STARTCHAR ij
ENCODING 307
SWIDTH 474 0
DWIDTH 15 0
BBX 13 30 1 -6
BITMAP
7870
F8F8
FCF8
FCF8
78F8
2020
0000
78F8
78F8
78F8
78F8
78F8
78F8
78F8
78F8
78F8
78F8
78F8
78F8
78F8
78F8
78F8
78F8
78F0
01F0
03F0
3FE0
3FC0
3F80
3F00
ENDCHAR
STARTCHAR Jcircumflex
ENCODING 308
SWIDTH 416 0
DWIDTH 13 0
BBX 13 29 0 0
BITMAP
00C0
01E0
03F0
07F8
0338
0010
0000
01F0
01F0
01F0
01F0
01F0
01F0
01F0
01F0
01F0
01F0
01F0
01F0
01F0
01F0
01E0
03E0
07E0
DFC0
FFC0
FF80
FF00
F800
ENDCHAR
STARTCHAR jcircumflex
ENCODING 309
SWIDTH 237 0
DWIDTH 8 0
BBX 13 30 -5 -6
BITMAP
00C0
01E0
03F0
07F8
0730
0210
0000
01E0
01E0
01E0
01E0
01E0
01E0
01E0
01E0
01E0
01E0
01E0
01E0
01E0
01E0
01E0
01E0
03E0
03E0
07C0
FFC0
FF80
FF00
FC00
ENDCHAR
STARTCHAR Kcommaaccent
ENCODING 310
SWIDTH 625 0
DWIDTH 20 0
BBX 18 30 2 -8
BITMAP
F80F80
F81F80
F81F00
F83E00
F87C00
F8FC00
F8F800
F9F000
FBE000
FBE000
FFF000
FFF000
FFF800
FFF800
FE7C00
FC7C00
F83E00
F83F00
F81F00
F80F80
F80F80
F807C0
000000
000000
03C000
03C000
03C000
01C000
018000
018000
ENDCHAR
STARTCHAR kcommaaccent
ENCODING 311
SWIDTH 539 0
DWIDTH 17 0
BBX 15 31 2 -8
BITMAP
F000
F000
F000
F000
F000
F000
F03E
F07C
F078
F0F8
F1F0
F3E0
F7C0
F7C0
FFC0
FFE0
FFE0
FDF0
FCF8
F8F8
F07C
F07C
F03E
0000
0000
0700
0F80
0780
0780
0300
0300
ENDCHAR
STARTCHAR kgreenlandic
ENCODING 312
SWIDTH 539 0
DWIDTH 17 0
BBX 15 17 2 0
BITMAP
F03E
F07C
F078
F0F8
F1F0
F3E0
F7C0
F7C0
FFC0
FFE0
FFE0
FDF0
FCF8
F8F8
F07C
F07C
F03E
ENDCHAR
STARTCHAR Lacute
ENCODING 313
SWIDTH 562 0
DWIDTH 18 0
BBX 16 28 2 0
BITMAP
00C0
01E0
03F0
07E0
0780
0300
F800
F800
F800
F800
F800
F800
F800
F800
F800
F800
F800
F800
F800
F800
F800
F800
F800
F800
FFFF
FFFF
FFFF
FFFF
ENDCHAR
STARTCHAR lacute
ENCODING 314
SWIDTH 235 0
DWIDTH 8 0
BBX 8 31 2 0
BITMAP
04
0E
1F
3E
7C
30
00
00
F0
F0
F0
F0
F0
F0
F0
F0
F0
F0
F0
F0
F0
F0
F0
F0
F0
F0
F0
F0
F0
F0
F0
ENDCHAR
STARTCHAR Lcommaaccent
ENCODING 315
SWIDTH 562 0
DWIDTH 18 0
BBX 16 30 2 -8
BITMAP
F800
F800
F800
F800
F800
F800
F800
F800
F800
F800
F800
F800
F800
F800
F800
F800
F800
F800
FFFF
FFFF
FFFF
FFFF
0000
0000
0780
0780
0780
0380
0380
0300
ENDCHAR
STARTCHAR lcommaaccent
ENCODING 316
SWIDTH 235 0
DWIDTH 8 0
BBX 4 31 2 -8
BITMAP
F0
F0
F0
F0
F0
F0
F0
F0
F0
F0
F0
F0
F0
F0
F0
F0
F0
F0
F0
F0
F0
F0
F0
00
00
F0
F0
F0
70
60
60
ENDCHAR
STARTCHAR Lcaron
ENCODING 317
SWIDTH 562 0
DWIDTH 18 0
BBX 16 22 2 0
BITMAP
F9C0
FBE0
F9E0
F9E0
F8C0
F8C0
F800
F800
F800
F800
F800
F800
F800
F800
F800
F800
F800
F800
FFFF
FFFF
FFFF
FFFF
ENDCHAR
STARTCHAR lcaron
ENCODING 318
SWIDTH 369 0
DWIDTH 12 0
BBX 10 23 2 0
BITMAP
F000
F380
F3C0
F3C0
F1C0
F180
F180
F000
F000
F000
F000
F000
F000
F000
F000
F000
F000
F000
F000
F000
F000
F000
F000
ENDCHAR
STARTCHAR Ldot
ENCODING 319
SWIDTH 745 0
DWIDTH 24 0
BBX 20 22 2 0
BITMAP
F80000
F80000
F80000
F80000
F80000
F80000
F80000
F80000
F800E0
F801F0
F801F0
F801F0
F800F0
F80000
F80000
F80000
F80000
F80000
FFFF00
FFFF00
FFFF00
FFFF00
ENDCHAR
STARTCHAR ldotaccent
ENCODING 320
SWIDTH 463 0
DWIDTH 15 0
BBX 11 23 2 0
BITMAP
F000
F000
F000
F000
F000
F000
F000
F000
F000
F1C0
F3E0
F3E0
F3E0
F1E0
F000
F000
F000
F000
F000
F000
F000
F000
F000
ENDCHAR
STARTCHAR Lslash
ENCODING 321
SWIDTH 585 0
DWIDTH 19 0
BBX 19 22 0 0
BITMAP
1E0000
1E0000
1E0000
1E0000
1E0000
1E0000
1E4000
1FC000
1FC000
1FC000
7F8000
FF0000
FE0000
FE0000
DE0000
1E0000
1E0000
1E0000
1FFFE0
1FFFE0
1FFFE0
1FFFE0
ENDCHAR
STARTCHAR lslash
ENCODING 322
SWIDTH 319 0
DWIDTH 10 0
BBX 10 23 0 0
BITMAP
1E00
1E00
1E00
1E00
1E00
1E00
1E00
1E40
1FC0
1FC0
1FC0
7F80
FF00
FE00
FE00
DE00
1E00
1E00
1E00
1E00
1E00
1E00
1E00
ENDCHAR
STARTCHAR Nacute
ENCODING 323
SWIDTH 689 0
DWIDTH 22 0
BBX 18 29 2 0
BITMAP
001800
003800
007C00
00F800
00F000
00C000
000000
F803C0
FC03C0
FE03C0
FE03C0
FF03C0
FF03C0
FF83C0
FFC3C0
FFC3C0
FBE3C0
FBE3C0
F9F3C0
F8F3C0
F8FBC0
F87FC0
F87FC0
F83FC0
F81FC0
F81FC0
F80FC0
F80FC0
F807C0
ENDCHAR
STARTCHAR nacute
ENCODING 324
SWIDTH 562 0
DWIDTH 18 0
BBX 15 25 2 0
BITMAP
0020
0070
01F8
03F0
03E0
0180
0000
0000
8FC0
DFF0
FFF8
FFF8
FCFC
F83C
F03E
F03E
F03E
F03E
F03E
F03E
F03E
F03E
F03E
F03E
F03E
ENDCHAR
STARTCHAR Ncommaaccent
ENCODING 325
SWIDTH 689 0
DWIDTH 22 0
BBX 18 30 2 -8
BITMAP
F803C0
FC03C0
FE03C0
FE03C0
FF03C0
FF03C0
FF83C0
FFC3C0
FFC3C0
FBE3C0
FBE3C0
F9F3C0
F8F3C0
F8FBC0
F87FC0
F87FC0
F83FC0
F81FC0
F81FC0
F80FC0
F80FC0
F807C0
000000
000000
01E000
01E000
01E000
00E000
00E000
00C000
ENDCHAR
STARTCHAR ncommaaccent
ENCODING 326
SWIDTH 562 0
DWIDTH 18 0
BBX 15 25 2 -8
BITMAP
8FC0
DFF0
FFF8
FFF8
FCFC
F83C
F03E
F03E
F03E
F03E
F03E
F03E
F03E
F03E
F03E
F03E
F03E
0000
0000
0780
0780
0780
0380
0380
0300
ENDCHAR
STARTCHAR Ncaron
ENCODING 327
SWIDTH 689 0
DWIDTH 22 0
BBX 18 30 2 0
BITMAP
020000
033000
07F800
03F000
01E000
00C000
000000
000000
F803C0
FC03C0
FE03C0
FE03C0
FF03C0
FF03C0
FF83C0
FFC3C0
FFC3C0
FBE3C0
FBE3C0
F9F3C0
F8F3C0
F8FBC0
F87FC0
F87FC0
F83FC0
F81FC0
F81FC0
F80FC0
F80FC0
F807C0
ENDCHAR
STARTCHAR ncaron
ENCODING 328
SWIDTH 562 0
DWIDTH 18 0
BBX 15 25 2 0
BITMAP
0800
0CC0
1FE0
0FC0
0780
0300
0000
0000
8FC0
DFF0
FFF8
FFF8
FCFC
F83C
F03E
F03E
F03E
F03E
F03E
F03E
F03E
F03E
F03E
F03E
F03E
ENDCHAR
STARTCHAR napostrophe
ENCODING 329
SWIDTH 694 0
DWIDTH 22 0
BBX 21 22 0 0
BITMAP
F00000
F00000
F00000
700000
700000
621F00
037FC0
03FFE0
03FFF0
03F1F0
03E0F8
03C0F8
03C078
03C078
03C078
03C078
03C078
03C078
03C078
03C078
03C078
03C078
ENDCHAR
STARTCHAR Eng
ENCODING 330
SWIDTH 689 0
DWIDTH 22 0
BBX 18 28 2 -6
BITMAP
F803C0
FC03C0
FE03C0
FE03C0
FF03C0
FF03C0
FF83C0
FFC3C0
FFC3C0
FBE3C0
FBE3C0
F9F3C0
F8F3C0
F8FBC0
F87FC0
F87FC0
F83FC0
F81FC0
F81FC0
F80FC0
F80FC0
F807C0
000F80
001F80
01FF00
01FF00
01FE00
01F800
ENDCHAR
STARTCHAR eng
ENCODING 331
SWIDTH 562 0
DWIDTH 18 0
BBX 15 23 2 -6
BITMAP
8FC0
DFF0
FFF8
FFF8
FCFC
F83C
F03E
F03E
F03E
F03E
F03E
F03E
F03E
F03E
F03E
F03E
F03C
007C
00FC
0FF8
0FF0
0FE0
0FC0
ENDCHAR
STARTCHAR Omacron
ENCODING 332
SWIDTH 777 0
DWIDTH 25 0
BBX 23 27 1 0
BITMAP
01FE00
01FE00
01FE00
000000
003800
03FF80
07FFC0
1FFFE0
1FFFF0
3F01F8
7E00FC
7C007C
F8003E
F8003E
F0003E
F0001E
F0001E
F0003E
F8003E
F8003C
7C007C
7E00FC
3F83F8
1FFFF0
0FFFE0
07FFC0
01FF00
ENDCHAR
STARTCHAR omacron
ENCODING 333
SWIDTH 579 0
DWIDTH 19 0
BBX 17 22 1 0
BITMAP
0FF000
0FF000
0FF000
000000
000000
0FF000
1FFC00
3FFE00
7FFE00
7C3F00
F80F00
F00F80
F00F80
F00F80
F00F80
F00F80
F81F00
7C3F00
7FFE00
3FFE00
1FF800
07F000
ENDCHAR
STARTCHAR Obreve
ENCODING 334
SWIDTH 777 0
DWIDTH 25 0
BBX 23 29 1 0
BITMAP
00EE00
00EE00
00FE00
007C00
003800
000000
003800
03FF80
07FFC0
1FFFE0
1FFFF0
3F01F8
7E00FC
7C007C
F8003E
F8003E
F0003E
F0001E
F0001E
F0003E
F8003E
F8003C
7C007C
7E00FC
3F83F8
1FFFF0
0FFFE0
07FFC0
01FF00
ENDCHAR
STARTCHAR obreve
ENCODING 335
SWIDTH 579 0
DWIDTH 19 0
BBX 17 23 1 0
BITMAP
077000
077000
07F000
07E000
01C000
000000
0FF000
1FFC00
3FFE00
7FFE00
7C3F00
F80F00
F00F80
F00F80
F00F80
F00F80
F00F80
F81F00
7C3F00
7FFE00
3FFE00
1FF800
07F000
ENDCHAR
STARTCHAR Ohungarumlaut
ENCODING 336
SWIDTH 777 0
DWIDTH 25 0
BBX 23 31 1 0
BITMAP
002000
007180
0079C0
00FBE0
01F7C0
01EF80
00C700
000200
003800
03FF80
07FFC0
1FFFE0
1FFFF0
3F01F8
7E00FC
7C007C
F8003E
F8003E
F0003E
F0001E
F0001E
F0003E
F8003E
F8003C
7C007C
7E00FC
3F83F8
1FFFF0
0FFFE0
07FFC0
01FF00
ENDCHAR
STARTCHAR ohungarumlaut
ENCODING 337
SWIDTH 579 0
DWIDTH 19 0
BBX 17 25 1 0
BITMAP
010000
038C00
03CE00
07DF00
0FBE00
0F7C00
043800
001000
0FF000
1FFC00
3FFE00
7FFE00
7C3F00
F80F00
F00F80
F00F80
F00F80
F00F80
F00F80
F81F00
7C3F00
7FFE00
3FFE00
1FF800
07F000
ENDCHAR
STARTCHAR OE
ENCODING 338
SWIDTH 1125 0
DWIDTH 36 0
BBX 34 23 1 0
BITMAP
003C000000
03FF9FFFC0
07FFDFFFC0
1FFFFFFFC0
1FFFFFFFC0
3F01FE0000
7E00FE0000
7C007E0000
F8003E0000
F8003E0000
F0003FFC00
F0001FFC00
F0001FFC00
F0003FFC00
F8003E0000
F8003E0000
7C007E0000
7E00FE0000
3F83FE0000
1FFFFFFFC0
0FFFFFFFC0
07FFDFFFC0
01FF1FFFC0
ENDCHAR
STARTCHAR oe
ENCODING 339
SWIDTH 924 0
DWIDTH 30 0
BBX 28 17 1 0
BITMAP
0FF07F80
1FFCFFC0
3FFFFFE0
7FFFFFF0
7C3FE3E0
F80FC7C0
F00F8F80
F00F8F80
F00F9F00
F00FBE00
F00FFC00
F81FF8C0
7C3FF1E0
7FFFFFF0
3FFFFFE0
1FF8FFC0
07F07F80
ENDCHAR
STARTCHAR Racute
ENCODING 340
SWIDTH 651 0
DWIDTH 21 0
BBX 18 30 2 0
BITMAP
003000
007800
00F800
01F800
01E000
008000
000000
000000
FFF800
FFFE00
FFFF00
FFFF00
F81F80
F80F80
F807C0
F807C0
F803C0
F807C0
F807C0
F80F80
F81F80
FFFF80
FFFF00
FFFE00
FFFC00
FE3C00
F83E00
F83E00
F81F00
F81F00
ENDCHAR
STARTCHAR racute
ENCODING 341
SWIDTH 414 0
DWIDTH 13 0
BBX 11 24 2 0
BITMAP
0180
0380
07C0
0F80
0F00
0C00
0000
87E0
DFE0
FFE0
FFE0
FFE0
F800
F000
F000
F000
F000
F000
F000
F000
F000
F000
F000
F000
ENDCHAR
STARTCHAR Rcommaaccent
ENCODING 342
SWIDTH 651 0
DWIDTH 21 0
BBX 18 30 2 -8
BITMAP
FFF800
FFFE00
FFFF00
FFFF00
F81F80
F80F80
F807C0
F807C0
F803C0
F807C0
F807C0
F80F80
F81F80
FFFF80
FFFF00
FFFE00
FFFC00
FE3C00
F83E00
F83E00
F81F00
F81F00
000000
000000
01C000
03E000
03E000
01C000
00C000
008000
ENDCHAR
STARTCHAR rcommaaccent
ENCODING 343
SWIDTH 414 0
DWIDTH 13 0
BBX 11 25 2 -8
BITMAP
87E0
DFE0
FFE0
FFE0
FFE0
F800
F000
F000
F000
F000
F000
F000
F000
F000
F000
F000
F000
0000
0000
E000
F000
F000
7000
6000
6000
ENDCHAR
STARTCHAR Rcaron
ENCODING 344
SWIDTH 651 0
DWIDTH 21 0
BBX 18 29 2 0
BITMAP
063000
0F7800
07F000
03E000
01C000
008000
000000
FFF800
FFFE00
FFFF00
FFFF00
F81F80
F80F80
F807C0
F807C0
F803C0
F807C0
F807C0
F80F80
F81F80
FFFF80
FFFF00
FFFE00
FFFC00
FE3C00
F83E00
F83E00
F81F00
F81F00
ENDCHAR
STARTCHAR rcaron
ENCODING 345
SWIDTH 414 0
DWIDTH 13 0
BBX 11 24 2 0
BITMAP
6300
F780
7F00
3E00
0C00
0000
0000
87E0
DFE0
FFE0
FFE0
FFE0
F800
F000
F000
F000
F000
F000
F000
F000
F000
F000
F000
F000
ENDCHAR
STARTCHAR Sacute
ENCODING 346
SWIDTH 610 0
DWIDTH 20 0
BBX 18 30 1 0
BITMAP
001800
003C00
007C00
00FC00
00F000
004000
000000
000000
1FFF80
3FFF80
7FFF80
FFFF80
F80000
F00000
F00000
F80000
FC0000
7FFC00
7FFF00
3FFF80
0FFF80
000F80
0007C0
0007C0
0007C0
001F80
7FFF80
7FFF00
7FFE00
7FF800
ENDCHAR
STARTCHAR sacute
ENCODING 347
SWIDTH 523 0
DWIDTH 17 0
BBX 15 24 1 0
BITMAP
0030
0070
00F8
01F0
01E0
0180
0000
0FFC
3FFC
7FFC
FFFC
FFFC
F000
F800
FFF8
7FFC
3FFE
1FFE
001E
003E
FFFE
FFFC
FFFC
FFF0
ENDCHAR
STARTCHAR Scircumflex
ENCODING 348
SWIDTH 610 0
DWIDTH 20 0
BBX 18 29 1 0
BITMAP
00C000
01E000
03F000
07F800
073000
021000
000000
1FFF80
3FFF80
7FFF80
FFFF80
F80000
F00000
F00000
F80000
FC0000
7FFC00
7FFF00
3FFF80
0FFF80
000F80
0007C0
0007C0
0007C0
001F80
7FFF80
7FFF00
7FFE00
7FF800
ENDCHAR
STARTCHAR scircumflex
ENCODING 349
SWIDTH 523 0
DWIDTH 17 0
BBX 15 24 1 0
BITMAP
0300
0780
0FC0
1FE0
0CE0
0040
0000
0FFC
3FFC
7FFC
FFFC
FFFC
F000
F800
FFF8
7FFC
3FFE
1FFE
001E
003E
FFFE
FFFC
FFFC
FFF0
ENDCHAR
STARTCHAR Scedilla
ENCODING 350
SWIDTH 610 0
DWIDTH 20 0
BBX 18 29 1 -7
BITMAP
1FFF80
3FFF80
7FFF80
FFFF80
F80000
F00000
F00000
F80000
FC0000
7FFC00
7FFF00
3FFF80
0FFF80
000F80
0007C0
0007C0
0007C0
001F80
7FFF80
7FFF00
7FFE00
7FF800
00C000
00E000
01F000
007000
03F000
03F000
03E000
ENDCHAR
STARTCHAR scedilla
ENCODING 351
SWIDTH 523 0
DWIDTH 17 0
BBX 15 24 1 -7
BITMAP
0FFC
3FFC
7FFC
FFFC
FFFC
F000
F800
FFF8
7FFC
3FFE
1FFE
001E
003E
FFFE
FFFC
FFFC
FFF0
0180
0380
03C0
00E0
07E0
0FC0
07C0
ENDCHAR
STARTCHAR Scaron
ENCODING 352
SWIDTH 610 0
DWIDTH 20 0
BBX 18 29 1 0
BITMAP
063000
07F800
07F000
03E000
00C000
000000
000000
1FFF80
3FFF80
7FFF80
FFFF80
F80000
F00000
F00000
F80000
FC0000
7FFC00
7FFF00
3FFF80
0FFF80
000F80
0007C0
0007C0
0007C0
001F80
7FFF80
7FFF00
7FFE00
7FF800
ENDCHAR
STARTCHAR scaron
ENCODING 353
SWIDTH 523 0
DWIDTH 17 0
BBX 15 24 1 0
BITMAP
0C60
0FF0
0FE0
03C0
0180
0000
0000
0FFC
3FFC
7FFC
FFFC
FFFC
F000
F800
FFF8
7FFC
3FFE
1FFE
001E
003E
FFFE
FFFC
FFFC
FFF0
ENDCHAR
STARTCHAR Tcommaaccent
ENCODING 354
SWIDTH 578 0
DWIDTH 19 0
BBX 18 30 0 -8
BITMAP
FFFFC0
FFFFC0
FFFFC0
FFFFC0
01E000
01E000
01E000
01E000
01E000
01E000
01E000
01E000
01E000
01E000
01E000
01E000
01E000
01E000
01E000
01E000
01E000
01E000
000000
000000
01E000
01E000
01E000
00E000
006000
00C000
ENDCHAR
STARTCHAR tcommaaccent
ENCODING 355
SWIDTH 437 0
DWIDTH 14 0
BBX 13 31 0 -8
BITMAP
1E00
1E00
1E00
1E00
1E00
1E00
FFF8
FFF8
FFF8
FFF8
FFF8
1E00
1E00
1E00
1E00
1E00
1E00
1E00
1F80
0FF8
0FF8
03F8
01F8
0000
0000
0780
0780
0780
0380
0380
0300
ENDCHAR
STARTCHAR Tcaron
ENCODING 356
SWIDTH 578 0
DWIDTH 19 0
BBX 18 29 0 0
BITMAP
033000
07F800
03F800
01F000
00E000
000000
000000
FFFFC0
FFFFC0
FFFFC0
FFFFC0
01E000
01E000
01E000
01E000
01E000
01E000
01E000
01E000
01E000
01E000
01E000
01E000
01E000
01E000
01E000
01E000
01E000
01E000
ENDCHAR
STARTCHAR tcaron
ENCODING 357
SWIDTH 570 0
DWIDTH 18 0
BBX 18 23 0 0
BITMAP
1E0000
1E03C0
1E03C0
1E03C0
1E01C0
1E01C0
FFF980
FFF800
FFF800
FFF800
FFF800
1E0000
1E0000
1E0000
1E0000
1E0000
1E0000
1E0000
1F8000
0FF800
0FF800
03F800
01F800
ENDCHAR
STARTCHAR Tbar
ENCODING 358
SWIDTH 578 0
DWIDTH 19 0
BBX 18 22 0 0
BITMAP
FFFFC0
FFFFC0
FFFFC0
FFFFC0
01E000
01E000
01E000
01E000
01E000
01E000
0FFC00
0FFC00
0FFC00
0FFC00
0FFC00
01E000
01E000
01E000
01E000
01E000
01E000
01E000
ENDCHAR
STARTCHAR tbar
ENCODING 359
SWIDTH 437 0
DWIDTH 14 0
BBX 13 23 0 0
BITMAP
1E00
1E00
1E00
1E00
1E00
1E00
FFF8
FFF8
FFF8
FFF8
FFF8
1E00
FFC0
FFC0
FFC0
FFC0
1E00
1E00
1F80
0FF8
0FF8
03F8
01F8
ENDCHAR
STARTCHAR Utilde
ENCODING 360
SWIDTH 673 0
DWIDTH 22 0
BBX 18 29 2 0
BITMAP
079C00
0FDC00
0FFC00
0EFC00
0E7800
000000
000000
F007C0
F007C0
F007C0
F007C0
F007C0
F007C0
F007C0
F007C0
F007C0
F007C0
F007C0
F007C0
F007C0
F007C0
F807C0
F80F80
7C0F80
7FFF80
3FFF00
1FFE00
0FFC00
03F000
ENDCHAR
STARTCHAR utilde
ENCODING 361
SWIDTH 562 0
DWIDTH 18 0
BBX 15 23 1 0
BITMAP
0F38
1FB8
1FF8
1DF8
1CF0
0000
F81E
F81E
F81E
F81E
F81E
F81E
F81E
F81E
F81E
F81E
F81E
783E
7C3E
7FFE
3FFE
1FF6
0FE2
ENDCHAR
STARTCHAR Umacron
ENCODING 362
SWIDTH 673 0
DWIDTH 22 0
BBX 18 27 2 0
BITMAP
07F800
07F800
07F800
000000
000000
F007C0
F007C0
F007C0
F007C0
F007C0
F007C0
F007C0
F007C0
F007C0
F007C0
F007C0
F007C0
F007C0
F007C0
F807C0
F80F80
7C0F80
7FFF80
3FFF00
1FFE00
0FFC00
03F000
ENDCHAR
STARTCHAR umacron
ENCODING 363
SWIDTH 562 0
DWIDTH 18 0
BBX 15 21 1 0
BITMAP
0FF0
0FF0
0FF0
0000
F81E
F81E
F81E
F81E
F81E
F81E
F81E
F81E
F81E
F81E
F81E
783E
7C3E
7FFE
3FFE
1FF6
0FE2
ENDCHAR
STARTCHAR Ubreve
ENCODING 364
SWIDTH 673 0
DWIDTH 22 0
BBX 18 28 2 0
BITMAP
073000
073000
07F000
03F000
01E000
000000
F007C0
F007C0
F007C0
F007C0
F007C0
F007C0
F007C0
F007C0
F007C0
F007C0
F007C0
F007C0
F007C0
F007C0
F807C0
F80F80
7C0F80
7FFF80
3FFF00
1FFE00
0FFC00
03F000
ENDCHAR
STARTCHAR ubreve
ENCODING 365
SWIDTH 562 0
DWIDTH 18 0
BBX 15 23 1 0
BITMAP
0660
0E60
07E0
07E0
03C0
0000
F81E
F81E
F81E
F81E
F81E
F81E
F81E
F81E
F81E
F81E
F81E
783E
7C3E
7FFE
3FFE
1FF6
0FE2
ENDCHAR
STARTCHAR Uring
ENCODING 366
SWIDTH 673 0
DWIDTH 22 0
BBX 18 30 2 0
BITMAP
008000
03E000
03F000
033000
03F000
03E000
000000
000000
F007C0
F007C0
F007C0
F007C0
F007C0
F007C0
F007C0
F007C0
F007C0
F007C0
F007C0
F007C0
F007C0
F007C0
F807C0
F80F80
7C0F80
7FFF80
3FFF00
1FFE00
0FFC00
03F000
ENDCHAR
STARTCHAR uring
ENCODING 367
SWIDTH 562 0
DWIDTH 18 0
BBX 15 24 1 0
BITMAP
0180
03C0
07E0
0660
07E0
03C0
0000
F81E
F81E
F81E
F81E
F81E
F81E
F81E
F81E
F81E
F81E
F81E
783E
7C3E
7FFE
3FFE
1FF6
0FE2
ENDCHAR
STARTCHAR Uhungarumlaut
ENCODING 368
SWIDTH 673 0
DWIDTH 22 0
BBX 18 31 2 0
BITMAP
008000
01C400
03EE00
07DF00
079E00
073C00
023800
001000
000000
F007C0
F007C0
F007C0
F007C0
F007C0
F007C0
F007C0
F007C0
F007C0
F007C0
F007C0
F007C0
F007C0
F007C0
F807C0
F80F80
7C0F80
7FFF80
3FFF00
1FFE00
0FFC00
03F000
ENDCHAR
STARTCHAR uhungarumlaut
ENCODING 369
SWIDTH 562 0
DWIDTH 18 0
BBX 16 25 1 0
BITMAP
0100
038C
07DE
07DF
0F3E
0E7C
0430
0000
F81E
F81E
F81E
F81E
F81E
F81E
F81E
F81E
F81E
F81E
F81E
783E
7C3E
7FFE
3FFE
1FF6
0FE2
ENDCHAR
STARTCHAR Uogonek
ENCODING 370
SWIDTH 673 0
DWIDTH 22 0
BBX 18 28 2 -6
BITMAP
F007C0
F007C0
F007C0
F007C0
F007C0
F007C0
F007C0
F007C0
F007C0
F007C0
F007C0
F007C0
F007C0
F007C0
F807C0
F80F80
FC0F80
7FFF80
3FFF00
1FFE00
0FFC00
03F000
038000
030000
074000
07E000
03F000
018000
ENDCHAR
STARTCHAR uogonek
ENCODING 371
SWIDTH 562 0
DWIDTH 18 0
BBX 18 23 1 -6
BITMAP
F81E00
F81E00
F81E00
F81E00
F81E00
F81E00
F81E00
F81E00
F81E00
F81E00
F81E00
783E00
7C3E00
7FFE00
3FFE00
1FF600
0FE600
000E00
000C00
001D00
001F80
000FC0
000600
ENDCHAR
STARTCHAR Wcircumflex
ENCODING 372
SWIDTH 819 0
DWIDTH 26 0
BBX 22 29 2 0
BITMAP
003000
007800
00FC00
01FE00
00CE00
008400
000000
F0783C
F0783C
F0783C
F0783C
F0783C
F0783C
F0783C
F0783C
F0783C
F0783C
F0783C
F0783C
F0783C
F0783C
F0783C
F0783C
F87C3C
FCFC7C
7FFFFC
7FFFF8
3FFFF0
1FCFE0
ENDCHAR
STARTCHAR wcircumflex
ENCODING 373
SWIDTH 756 0
DWIDTH 24 0
BBX 22 24 1 0
BITMAP
003000
007800
00FC00
01FE00
00CE00
008400
000000
F8787C
F8787C
F8787C
F8787C
F8787C
F8787C
F8787C
F8787C
F8787C
F8787C
F8787C
F8787C
78FC7C
7FFFF8
3FFFF8
3FFFF0
0FCFC0
ENDCHAR
STARTCHAR Ycircumflex
ENCODING 374
SWIDTH 620 0
DWIDTH 20 0
BBX 18 29 1 0
BITMAP
00C000
01E000
03F000
07F800
073800
021000
000000
F007C0
F007C0
F007C0
F007C0
F007C0
F007C0
F007C0
F807C0
F807C0
7C0F80
7E3F80
3FFF00
3FFE00
0FFC00
07F800
01E000
01E000
01E000
01E000
01E000
01E000
01E000
ENDCHAR
STARTCHAR ycircumflex
ENCODING 375
SWIDTH 562 0
DWIDTH 18 0
BBX 15 30 1 -6
BITMAP
0180
03C0
07E0
0FF0
0E70
0420
0000
F81E
F81E
F81E
F81E
F81E
F81E
F81E
F81E
F81E
F81E
F81E
783E
7C3E
7FFE
3FFE
1FFE
0FFE
003E
007E
07FC
07F8
07F0
07E0
ENDCHAR
STARTCHAR Ydieresis
ENCODING 376
SWIDTH 620 0
DWIDTH 20 0
BBX 18 28 1 0
BITMAP
061800
0F3C00
0F3C00
073800
000000
000000
F007C0
F007C0
F007C0
F007C0
F007C0
F007C0
F007C0
F807C0
F807C0
7C0F80
7E3F80
3FFF00
3FFE00
0FFC00
07F800
01E000
01E000
01E000
01E000
01E000
01E000
01E000
ENDCHAR
STARTCHAR Zacute
ENCODING 377
SWIDTH 586 0
DWIDTH 19 0
BBX 17 30 1 0
BITMAP
001000
003800
007C00
00F800
01F000
00C000
000000
000000
FFFF80
FFFF00
FFFF00
FFFE00
007C00
007C00
00F800
01F800
01F000
03F000
03E000
07E000
07C000
0FC000
0F8000
1F8000
1F0000
3F0000
3FFF80
7FFF80
7FFF80
FFFF80
ENDCHAR
STARTCHAR zacute
ENCODING 378
SWIDTH 481 0
DWIDTH 15 0
BBX 14 24 1 0
BITMAP
0060
00F0
01F0
03F0
03C0
0100
0000
FFFC
FFF8
FFF0
FFF0
FFE0
03E0
03C0
07C0
0780
0F80
1F00
1E00
3E00
3FFC
7FFC
7FFC
FFFC
ENDCHAR
STARTCHAR Zdotaccent
ENCODING 379
SWIDTH 586 0
DWIDTH 19 0
BBX 17 28 1 0
BITMAP
01C000
03C000
01C000
018000
000000
000000
FFFF80
FFFF00
FFFF00
FFFE00
007C00
007C00
00F800
01F800
01F000
03F000
03E000
07E000
07C000
0FC000
0F8000
1F8000
1F0000
3F0000
3FFF80
7FFF80
7FFF80
FFFF80
ENDCHAR
STARTCHAR zdotaccent
ENCODING 380
SWIDTH 481 0
DWIDTH 15 0
BBX 14 22 1 0
BITMAP
0700
0780
0780
0300
0000
FFFC
FFF8
FFF0
FFF0
FFE0
03E0
03C0
07C0
0780
0F80
1F00
1E00
3E00
3FFC
7FFC
7FFC
FFFC
ENDCHAR
STARTCHAR Zcaron
ENCODING 381
SWIDTH 586 0
DWIDTH 19 0
BBX 17 29 1 0
BITMAP
063000
0F7800
07F000
03E000
01C000
008000
000000
FFFF80
FFFF00
FFFF00
FFFE00
007C00
007C00
00F800
01F800
01F000
03F000
03E000
07E000
07C000
0FC000
0F8000
1F8000
1F0000
3F0000
3FFF80
7FFF80
7FFF80
FFFF80
ENDCHAR
STARTCHAR zcaron
ENCODING 382
SWIDTH 481 0
DWIDTH 15 0
BBX 14 24 1 0
BITMAP
18C0
1FE0
1FC0
0F80
0300
0000
0000
FFFC
FFF8
FFF0
FFF0
FFE0
03E0
03C0
07C0
0780
0F80
1F00
1E00
3E00
3FFC
7FFC
7FFC
FFFC
ENDCHAR
STARTCHAR AEacute
ENCODING 508
SWIDTH 988 0
DWIDTH 32 0
BBX 29 30 2 0
BITMAP
00006000
0000F000
0001F800
0003F000
0003C000
00018000
00000000
00000000
07FFFFF8
1FFFFFF8
3FFFFFF8
7FFFFFF8
7E07C000
FC07C000
F807C000
F007C000
F007C000
F007FF80
F007FF80
F007FF80
F007FF80
FFFFC000
FFFFC000
FFFFC000
FFFFC000
FFFFC000
F007FFF8
F007FFF8
F007FFF8
F007FFF8
ENDCHAR
STARTCHAR aeacute
ENCODING 509
SWIDTH 976 0
DWIDTH 31 0
BBX 30 24 1 0
BITMAP
00003000
00007000
0000F800
0001F000
0001E000
00018000
00000000
0FF09FC0
1FF9FFF0
3FFFFFF8
7FFFFFFC
7C3FF8F8
F81FE1F0
F00FE3E0
F00FE7C0
F007C780
F00FEF80
F00FFF00
F81FFE20
7C3FFC70
7FFFFFF8
3FFFFFF8
1FF9FFF0
0FF19FC0
ENDCHAR
STARTCHAR Oslashacute
ENCODING 510
SWIDTH 777 0
DWIDTH 25 0
BBX 23 30 1 0
BITMAP
000600
000F00
001F80
003F00
003C00
001800
000000
003800
03FFF8
07FFF0
1FFFF0
1FFFF0
3F03F8
7E07FC
7C0FFC
F80F3E
F81E3E
F03E3E
F03C1E
F0781E
F0F03E
F9F03E
F9E03C
7FC07C
7F80FC
3F83F8
1FFFF0
1FFFE0
3FFFC0
7DFF00
ENDCHAR
STARTCHAR oslashacute
ENCODING 511
SWIDTH 579 0
DWIDTH 19 0
BBX 17 25 1 0
BITMAP
001000
003800
00FC00
01F800
01F000
00C000
000000
000000
0FFF00
1FFF00
3FFE00
7FFE00
7C7F00
F8FF00
F0FF80
F1EF80
F3EF80
F7CF80
F78F80
FF1F00
7F3F00
7FFE00
3FFE00
7FF800
FFF000
ENDCHAR
STARTCHAR dotlessj
ENCODING 567
SWIDTH 237 0
DWIDTH 8 0
BBX 11 23 -5 -6
BITMAP
01E0
01E0
01E0
01E0
01E0
01E0
01E0
01E0
01E0
01E0
01E0
01E0
01E0
01E0
01E0
01E0
03E0
03E0
07C0
FFC0
FF80
FF00
FC00
ENDCHAR
STARTCHAR circumflex
ENCODING 710
SWIDTH 267 0
DWIDTH 9 0
BBX 8 6 0 16
BITMAP
18
3C
7E
FF
67
02
ENDCHAR
STARTCHAR caron
ENCODING 711
SWIDTH 267 0
DWIDTH 9 0
BBX 8 6 0 16
BITMAP
63
FF
7F
3E
1C
08
ENDCHAR
STARTCHAR breve
ENCODING 728
SWIDTH 220 0
DWIDTH 7 0
BBX 7 5 0 17
BITMAP
EE
EE
FE
7E
38
ENDCHAR
STARTCHAR dotaccent
ENCODING 729
SWIDTH 125 0
DWIDTH 4 0
BBX 4 4 0 17
BITMAP
60
F0
F0
60
ENDCHAR
STARTCHAR ring
ENCODING 730
SWIDTH 192 0
DWIDTH 6 0
BBX 6 6 0 17
BITMAP
30
78
FC
CC
FC
78
ENDCHAR
STARTCHAR ogonek
ENCODING 731
SWIDTH 212 0
DWIDTH 7 0
BBX 6 7 0 -6
BITMAP
38
70
E0
E8
FC
7C
30
ENDCHAR
STARTCHAR tilde
ENCODING 732
SWIDTH 321 0
DWIDTH 10 0
BBX 10 5 0 17
BITMAP
79C0
FDC0
FFC0
EFC0
E380
ENDCHAR
STARTCHAR hungarumlaut
ENCODING 733
SWIDTH 384 0
DWIDTH 12 0
BBX 12 8 0 16
BITMAP
1000
1C40
3EE0
7DF0
FBE0
F3C0
6380
0100
ENDCHAR
STARTCHAR uni0312
ENCODING 786
SWIDTH 192 0
DWIDTH 6 0
BBX 4 6 1 17
BITMAP
60
E0
F0
F0
F0
60
ENDCHAR
STARTCHAR uni0315
ENCODING 789
SWIDTH 132 0
DWIDTH 4 0
BBX 4 6 0 16
BITMAP
F0
F0
F0
70
70
60
ENDCHAR
STARTCHAR uni0326
ENCODING 806
SWIDTH 193 0
DWIDTH 6 0
BBX 4 6 1 -8
BITMAP
F0
F0
F0
70
70
60
ENDCHAR
STARTCHAR pi
ENCODING 960
SWIDTH 555 0
DWIDTH 18 0
BBX 16 17 1 0
BITMAP
FFFF
FFFF
FFFF
FFFF
FFFF
3C7C
3C7C
3C7C
3C7C
3C7C
3C7C
3C7C
3C7C
3C7C
3C7C
3C7C
3C7C
ENDCHAR
STARTCHAR Wgrave
ENCODING 7808
SWIDTH 819 0
DWIDTH 26 0
BBX 22 30 2 0
BITMAP
018000
03C000
07E000
03F000
00F000
006000
000000
000000
F0783C
F0783C
F0783C
F0783C
F0783C
F0783C
F0783C
F0783C
F0783C
F0783C
F0783C
F0783C
F0783C
F0783C
F0783C
F0783C
F87C3C
FCFC7C
7FFFFC
7FFFF8
3FFFF0
1FCFE0
ENDCHAR
STARTCHAR wgrave
ENCODING 7809
SWIDTH 756 0
DWIDTH 24 0
BBX 22 24 1 0
BITMAP
010000
038000
07C000
03E000
01F000
006000
000000
F8787C
F8787C
F8787C
F8787C
F8787C
F8787C
F8787C
F8787C
F8787C
F8787C
F8787C
F8787C
78FC7C
7FFFF8
3FFFF8
3FFFF0
0FCFC0
ENDCHAR
STARTCHAR Wacute
ENCODING 7810
SWIDTH 819 0
DWIDTH 26 0
BBX 22 30 2 0
BITMAP
000600
000F00
001F80
003F00
003C00
001800
000000
000000
F0783C
F0783C
F0783C
F0783C
F0783C
F0783C
F0783C
F0783C
F0783C
F0783C
F0783C
F0783C
F0783C
F0783C
F0783C
F0783C
F87C3C
FCFC7C
7FFFFC
7FFFF8
3FFFF0
1FCFE0
ENDCHAR
STARTCHAR wacute
ENCODING 7811
SWIDTH 756 0
DWIDTH 24 0
BBX 22 24 1 0
BITMAP
000200
000700
000F80
001F00
001E00
001800
000000
F8787C
F8787C
F8787C
F8787C
F8787C
F8787C
F8787C
F8787C
F8787C
F8787C
F8787C
F8787C
78FC7C
7FFFF8
3FFFF8
3FFFF0
0FCFC0
ENDCHAR
STARTCHAR Wdieresis
ENCODING 7812
SWIDTH 819 0
DWIDTH 26 0
BBX 22 28 2 0
BITMAP
018600
03CF00
03CF00
01C600
000000
000000
F0783C
F0783C
F0783C
F0783C
F0783C
F0783C
F0783C
F0783C
F0783C
F0783C
F0783C
F0783C
F0783C
F0783C
F0783C
F0783C
F87C3C
FCFC7C
7FFFFC
7FFFF8
3FFFF0
1FCFE0
ENDCHAR
STARTCHAR wdieresis
ENCODING 7813
SWIDTH 756 0
DWIDTH 24 0
BBX 22 22 1 0
BITMAP
018600
03CF00
03CF00
01C600
000000
F8787C
F8787C
F8787C
F8787C
F8787C
F8787C
F8787C
F8787C
F8787C
F8787C
F8787C
F8787C
78FC7C
7FFFF8
3FFFF8
3FFFF0
0FCFC0
ENDCHAR
STARTCHAR Ygrave
ENCODING 7922
SWIDTH 620 0
DWIDTH 20 0
BBX 18 30 1 0
BITMAP
0C0000
1E0000
1F0000
1F8000
078000
030000
000000
000000
F007C0
F007C0
F007C0
F007C0
F007C0
F007C0
F007C0
F807C0
F807C0
7C0F80
7E3F80
3FFF00
3FFE00
0FFC00
07F800
01E000
01E000
01E000
01E000
01E000
01E000
01E000
ENDCHAR
STARTCHAR ygrave
ENCODING 7923
SWIDTH 562 0
DWIDTH 18 0
BBX 15 30 1 -6
BITMAP
1800
3C00
3E00
3F00
0F00
0600
0000
F81E
F81E
F81E
F81E
F81E
F81E
F81E
F81E
F81E
F81E
F81E
783E
7C3E
7FFE
3FFE
1FFE
0FFE
003E
007E
07FC
07F8
07F0
07E0
ENDCHAR
STARTCHAR endash
ENCODING 8211
SWIDTH 418 0
DWIDTH 13 0
BBX 10 4 2 9
BITMAP
FFC0
FFC0
FFC0
FFC0
ENDCHAR
STARTCHAR emdash
ENCODING 8212
SWIDTH 719 0
DWIDTH 23 0
BBX 19 4 2 9
BITMAP
FFFFE0
FFFFE0
FFFFE0
FFFFE0
ENDCHAR
STARTCHAR quoteleft
ENCODING 8216
SWIDTH 246 0
DWIDTH 8 0
BBX 6 8 1 14
BITMAP
30
70
70
78
FC
FC
78
30
ENDCHAR
STARTCHAR quoteright
ENCODING 8217
SWIDTH 245 0
DWIDTH 8 0
BBX 6 8 1 14
BITMAP
78
F8
FC
F8
78
38
30
30
ENDCHAR
STARTCHAR quotesinglbase
ENCODING 8218
SWIDTH 264 0
DWIDTH 8 0
BBX 5 8 2 -4
BITMAP
F0
F8
F8
F8
78
30
70
20
ENDCHAR
STARTCHAR quotedblleft
ENCODING 8220
SWIDTH 445 0
DWIDTH 14 0
BBX 12 8 1 14
BITMAP
30E0
70C0
71C0
79E0
FDF0
FDF0
79F0
30E0
ENDCHAR
STARTCHAR quotedblright
ENCODING 8221
SWIDTH 444 0
DWIDTH 14 0
BBX 12 8 1 14
BITMAP
79E0
F9F0
FDF0
F9F0
78F0
3860
30E0
3040
ENDCHAR
STARTCHAR quotedblbase
ENCODING 8222
SWIDTH 463 0
DWIDTH 15 0
BBX 11 8 2 -4
BITMAP
F1C0
FBE0
FBE0
FBE0
79E0
30E0
71C0
20C0
ENDCHAR
STARTCHAR dagger
ENCODING 8224
SWIDTH 434 0
DWIDTH 14 0
BBX 12 29 1 -3
BITMAP
0F00
0F00
0F00
0F00
0F00
0F00
FFF0
FFF0
FFF0
FFF0
0F00
0F00
0F00
0F00
0F00
0F00
0F00
0F00
0F00
0F00
0F00
0F00
0F00
0F00
0F00
0F00
0F00
0F00
0F00
ENDCHAR
STARTCHAR daggerdbl
ENCODING 8225
SWIDTH 452 0
DWIDTH 14 0
BBX 12 29 1 -3
BITMAP
0F80
0F80
0F80
0F80
0F80
0F80
FFF0
FFF0
FFF0
FFF0
0F80
0F80
0F80
0F80
0F80
0F80
0F80
0F80
0F80
FFF0
FFF0
FFF0
FFF0
0F80
0F80
0F80
0F80
0F80
0F80
ENDCHAR
STARTCHAR bullet
ENCODING 8226
SWIDTH 354 0
DWIDTH 11 0
BBX 7 7 2 8
BITMAP
38
7C
FE
FE
7E
7C
38
ENDCHAR
STARTCHAR ellipsis
ENCODING 8230
SWIDTH 789 0
DWIDTH 25 0
BBX 22 5 2 -1
BITMAP
F07078
F8F87C
F8F8FC
F8F878
707078
ENDCHAR
STARTCHAR perthousand
ENCODING 8240
SWIDTH 998 0
DWIDTH 32 0
BBX 30 23 1 0
BITMAP
1C000000
3F038000
7F838000
F3870000
E38F0000
E38E0000
E39E0000
E39C0000
77BC0000
7F380000
3F780000
08700000
00E7C1E0
01EFE3F8
01DFE7F8
03DCF73C
039C771C
079C771C
071C771C
0F1C771C
0E1FE7F8
1C0FE3F8
1C07C1F0
ENDCHAR
STARTCHAR guilsinglleft
ENCODING 8249
SWIDTH 403 0
DWIDTH 13 0
BBX 11 15 1 1
BITMAP
0180
03C0
07E0
0FC0
1F80
3F00
7E00
FC00
FC00
7E00
3F00
1F80
07C0
03C0
0180
ENDCHAR
STARTCHAR guilsinglright
ENCODING 8250
SWIDTH 402 0
DWIDTH 13 0
BBX 11 15 1 1
BITMAP
3000
7800
FC00
7E00
3F00
1F80
0FC0
07E0
07E0
0FC0
1F80
3E00
7C00
7800
3000
ENDCHAR
STARTCHAR fraction
ENCODING 8260
SWIDTH 477 0
DWIDTH 15 0
BBX 15 22 0 0
BITMAP
000E
001C
003C
0038
0078
0070
00F0
00E0
01E0
01C0
03C0
0380
0700
0F00
0E00
1E00
1C00
3C00
3800
7800
7000
E000
ENDCHAR
STARTCHAR Euro
ENCODING 8364
SWIDTH 806 0
DWIDTH 26 0
BBX 23 23 1 0
BITMAP
0003C0
001FF8
007FFE
00FFFE
01FFFE
03F81C
03E000
3FFE00
3FFE00
3FFE00
7FFE00
0F8000
0F8000
7FFC00
7FFC00
FFF800
FFF800
03F008
03F83C
01FFFE
00FFFE
007FFC
001FF8
ENDCHAR
STARTCHAR trademark
ENCODING 8482
SWIDTH 606 0
DWIDTH 19 0
BBX 15 9 2 14
BITMAP
0040
FCFE
31B2
3192
3192
3192
3192
3192
3192
ENDCHAR
STARTCHAR partialdiff
ENCODING 8706
SWIDTH 609 0
DWIDTH 20 0
BBX 17 24 1 0
BITMAP
03F000
01F000
00F800
00F800
007C00
003C00
003E00
07FE00
1FFF00
3FFF00
3FFF00
7E1F80
780F80
F80780
F80780
F00780
F80780
F80F80
780F80
7E1F00
3FFF00
3FFE00
1FFC00
07F000
ENDCHAR
STARTCHAR product
ENCODING 8719
SWIDTH 632 0
DWIDTH 20 0
BBX 18 22 1 0
BITMAP
FFFFC0
FFFFC0
FFFFC0
FFFFC0
1F1E00
1F1E00
1F1E00
1F1E00
1F1E00
1F1E00
1F1E00
1F1E00
1F1E00
1F1E00
1F1E00
1F1E00
1F1E00
1F1E00
1F1E00
1F1E00
1F1E00
1F1E00
ENDCHAR
STARTCHAR minus
ENCODING 8722
SWIDTH 543 0
DWIDTH 17 0
BBX 13 4 2 9
BITMAP
FFF8
FFF8
FFF8
FFF8
ENDCHAR
STARTCHAR infinity
ENCODING 8734
SWIDTH 771 0
DWIDTH 25 0
BBX 22 15 1 3
BITMAP
0701C0
1FCFF0
3FFFF8
7FFFF8
7FFFFC
78FC7C
F8783C
F8783C
F87C3C
7C7E7C
7FFFFC
7FFFF8
3FEFF8
1FC7E0
000180
ENDCHAR
STARTCHAR approxequal
ENCODING 8776
SWIDTH 476 0
DWIDTH 15 0
BBX 11 13 2 5
BITMAP
1020
7CE0
FEE0
FFE0
F7E0
E3C0
0000
3860
7CE0
FFE0
FFE0
E7E0
E3C0
ENDCHAR
STARTCHAR notequal
ENCODING 8800
SWIDTH 512 0
DWIDTH 16 0
BBX 13 20 2 1
BITMAP
00F0
01E0
01E0
01E0
FFF8
FFF8
FFF8
FFF8
FFF8
0F00
0F00
FFF8
FFF8
FFF8
FFF8
3C00
3C00
7800
7800
7800
ENDCHAR
STARTCHAR fi
ENCODING 64257
SWIDTH 650 0
DWIDTH 21 0
BBX 19 25 1 0
BITMAP
01F000
07F3C0
0FF7E0
1FF7E0
3F07E0
3E03C0
3C0000
3C0000
FFFFC0
FFFFC0
FFFFC0
FFFFC0
FFFFC0
3C03C0
3C03C0
3C03C0
3C03C0
3C03C0
3C03C0
3C03C0
3C03C0
3C03C0
3C03C0
3C03C0
3C03C0
ENDCHAR
STARTCHAR fl
ENCODING 64258
SWIDTH 631 0
DWIDTH 20 0
BBX 18 25 1 0
BITMAP
01FFC0
07FFC0
0FFFC0
1FFFC0
3F07C0
3E07C0
3C07C0
3C07C0
FFE7C0
FFE7C0
FFE7C0
FFE7C0
FFE7C0
3C07C0
3C07C0
3C07C0
3C07C0
3C07C0
3C07C0
3C07C0
3C07C0
3C07C0
3C07C0
3C07C0
3C07C0
ENDCHAR
STARTCHAR .notdef
ENCODING -1
SWIDTH 279 0
DWIDTH 9 0
BBX 1 1 0 0
BITMAP
00
ENDCHAR
STARTCHAR .null
ENCODING -1
SWIDTH 0 0
DWIDTH 0 0
BBX 1 1 0 0
BITMAP
00
ENDCHAR
STARTCHAR nonmarkingreturn
ENCODING -1
SWIDTH 279 0
DWIDTH 9 0
BBX 1 1 0 0
BITMAP
00
ENDCHAR
ENDFONT
